<?xml version="1.0" encoding="UTF-8"?>
<svg version="1.1" xmlns="http://www.w3.org/2000/svg" width="726" height="1025">
<path d="M0 0 C239.58 0 479.16 0 726 0 C726 13.50003033 726 13.50003033 725.5866701 18.15488726 C725.49426666 19.22461383 725.40186322 20.29434039 725.30665967 21.39648291 C725.20323476 22.53206469 725.09980985 23.66764646 724.99325085 24.83763981 C724.8299826 26.70076489 724.8299826 26.70076489 724.663416 28.60152885 C724.36285724 32.02956139 724.05577347 35.45698181 723.74755562 38.88433303 C723.41274647 42.62047744 723.08408609 46.35716372 722.75461417 50.09378189 C722.17690494 56.63596608 721.59524945 63.17779005 721.01097298 69.71939087 C720.14216586 79.44661829 719.2793957 89.17437468 718.4177272 98.90223672 C716.69962095 118.29587195 714.97305552 137.68874953 713.24445394 157.08145167 C713.11028407 158.58667745 713.11028407 158.58667745 712.97340369 160.12231183 C712.88377721 161.12780368 712.79415073 162.13329554 712.7018083 163.16925684 C711.70831363 174.31613343 710.71662094 185.46317024 709.72498512 196.61021233 C706.73043486 230.2699208 703.73413188 263.92947207 700.73059368 297.58837986 C700.58657829 299.2023115 700.58657829 299.2023115 700.4396535 300.84884781 C700.05056537 305.20921257 699.66146977 309.56957667 699.27237265 313.92994063 C698.97951278 317.2118385 698.68665568 320.49373662 698.39379883 323.77563477 C698.24864008 325.40232262 698.24864008 325.40232262 698.10054883 327.06187285 C694.95887994 362.26913753 691.82873829 397.47741354 688.70560402 432.6863269 C685.40385668 469.90840278 682.09236935 507.12959896 678.76940757 544.34978718 C678.40505795 548.43123156 678.04074643 552.51267934 677.67646217 556.59412956 C677.58675966 557.59910284 677.49705715 558.60407612 677.40463638 559.63950313 C675.95891238 575.83905185 674.5220433 592.03937438 673.08826876 608.23998457 C671.64876807 624.50265209 670.19925784 640.76440321 668.7394677 657.02526224 C667.87164215 666.69537942 667.01140912 676.36610306 666.16186779 686.03784408 C665.59451871 692.48841052 665.01742738 698.9380561 664.43222466 705.38702726 C664.09852118 709.06758244 663.76922096 712.74839253 663.45171317 716.43038327 C663.1104565 720.38659983 662.7484991 724.34075858 662.38427258 728.29493046 C662.28787116 729.45158273 662.19146975 730.608235 662.09214708 731.79993734 C661.94227609 733.37072969 661.94227609 733.37072969 661.78937739 734.97325522 C661.66841442 736.33117272 661.66841442 736.33117272 661.54500775 737.71652291 C660.90430791 740.40093136 660.18043328 741.34396106 658 743 C655.47794097 743.89507768 653.03742944 744.64557892 650.45874023 745.33056641 C649.68399353 745.54500648 648.90924683 745.75944656 648.11102295 745.98038483 C645.51273393 746.6969966 642.91075663 747.39915935 640.30859375 748.1015625 C638.45369328 748.61024224 636.599049 749.11985697 634.74464417 749.63034058 C630.7493687 750.7281729 626.75245365 751.81974119 622.75415039 752.90649414 C616.36524642 754.6431541 609.98016169 756.39356249 603.59570312 758.14648438 C596.97161919 759.96459588 590.34733356 761.78194776 583.72177124 763.59466553 C569.48486884 767.49016376 555.25558232 771.41196571 541.03515625 775.3671875 C540.11828222 775.62219969 539.2014082 775.87721188 538.25675011 776.13995171 C533.66282953 777.41792144 529.06910663 778.69659997 524.47549438 779.97567749 C515.29187622 782.53267286 506.10692874 785.08488582 496.921875 787.63671875 C496.00486628 787.89151064 495.08785755 788.14630253 494.14306068 788.40881538 C478.74936665 792.68556492 463.35201688 796.94903803 447.953125 801.20703125 C446.87166702 801.50607738 445.79020905 801.80512352 444.67597961 802.11323166 C434.13470224 805.02798225 423.59314002 807.94169985 413.05104446 810.85348988 C409.19514247 811.91860932 405.33936394 812.98417526 401.48360443 814.04981041 C398.86267062 814.77396779 396.24155094 815.49744943 393.62042236 816.22090149 C392.81106609 816.44478892 392.00170982 816.66867636 391.16782761 816.89934826 C389.60579265 817.33066062 388.04318769 817.75991501 386.47996902 818.1869173 C382.99072788 819.14478744 379.52410751 820.13573757 376.07995605 821.24569702 C362.39802543 825.55171397 352.02281414 822.14474438 338.640625 818.34765625 C336.89724029 817.85972174 335.15363763 817.3725654 333.40983582 816.88612366 C329.66038023 815.83857296 325.91239987 814.78595305 322.16549683 813.72930908 C316.14529349 812.03172861 310.12190624 810.34565109 304.09790039 808.66162109 C297.77606392 806.8939073 291.45436717 805.12570947 285.13368225 803.35388184 C270.94419741 799.37687327 256.74741458 795.42713764 242.54296875 791.50390625 C241.11167224 791.10858263 241.11167224 791.10858263 239.65146065 790.70527267 C234.83708818 789.37574553 230.02256295 788.04677249 225.20797729 786.71801758 C215.52823627 784.04624364 205.84999525 781.36904426 196.171875 778.69140625 C194.71909558 778.28946989 194.71909558 778.28946989 193.23696709 777.8794136 C170.39107093 771.55812241 147.54890369 765.22341762 124.71047974 758.87518311 C120.39181559 757.67481238 116.07285769 756.47550774 111.75363159 755.27716064 C106.70464705 753.87626923 101.65629874 752.47310836 96.60843658 751.06817818 C94.75758824 750.55343075 92.90652508 750.039455 91.05522919 749.5263195 C88.51432036 748.82187557 85.97423358 748.11453892 83.43432617 747.40649414 C82.34349558 747.10514148 82.34349558 747.10514148 81.23062801 746.79770088 C66.74693417 742.74693417 66.74693417 742.74693417 65 741 C64.77975932 739.52050111 64.62189672 738.03166399 64.48927039 736.54175353 C64.40060955 735.570579 64.31194871 734.59940448 64.22060117 733.59880042 C64.1265065 732.51691829 64.03241183 731.43503616 63.93546581 730.32036972 C63.83251956 729.17785012 63.72957331 728.03533051 63.62350747 726.85818911 C63.33613787 723.65853323 63.05286824 720.45854347 62.77124762 717.25837738 C62.46475779 713.78689488 62.15305463 710.31588009 61.84199077 706.844805 C61.29659396 700.7506771 60.75457757 694.65625572 60.2147274 688.56163406 C59.41175281 679.49665012 58.60362806 670.43213057 57.79442102 661.36770112 C56.43253334 646.11068609 55.07487051 630.85329783 53.7195797 615.5956955 C52.37438413 600.45189982 51.0273242 585.30827188 49.67777443 570.16486359 C49.59385651 569.22320174 49.5099386 568.2815399 49.42347772 567.31134284 C48.99721341 562.52824383 48.57091592 557.74514778 48.14460573 552.96205285 C45.12021117 519.02840896 42.10001864 485.09439224 39.08227539 451.16015625 C36.15991856 418.29863895 33.23567941 385.43729006 30.30883789 352.57617188 C30.21896426 351.56710701 30.12909063 350.55804214 30.03649355 349.51839955 C29.13351411 339.38013389 28.2304965 329.24187162 27.32745245 319.10361172 C25.47732284 298.33262539 23.62747572 277.56161391 21.77778625 256.79058838 C21.69244556 255.83226068 21.60710486 254.87393298 21.51917809 253.88656505 C17.76288629 211.70529667 14.0091887 169.5237976 10.25671475 127.34218943 C9.96916802 124.10987323 9.68161826 120.87755729 9.39406865 117.64524134 C9.25411815 116.0720486 9.1141709 114.49885557 8.97422697 112.92566224 C8.63456931 109.10737178 8.29487361 105.28908472 7.95508627 101.47080579 C7.31938783 94.32669068 6.6844164 87.18251248 6.05117738 80.03817892 C5.06091259 68.8707795 4.06887339 57.70365124 3.04247465 46.53950505 C2.65523798 42.32669476 2.27147707 38.11357086 1.88785616 33.90042999 C1.63397747 31.13111056 1.37434188 28.36237495 1.11437196 25.59362197 C0.96351714 23.93882745 0.8129513 22.28400655 0.66273212 20.62915421 C0.59443971 19.92266004 0.52614729 19.21616588 0.4557854 18.4882628 C-0.09857003 12.25875038 0 6.34099864 0 0 Z " fill="#264DE4" transform="translate(0,201)"/>
<path d="M0 0 C150.15 0 300.3 0 455 0 C454.41393877 10.54910209 453.82406523 21.04700209 452.89674377 31.56428528 C452.79270831 32.74968871 452.79270831 32.74968871 452.68657112 33.95903969 C452.61469015 34.77693159 452.54280918 35.59482349 452.46875 36.4375 C452.31544123 38.20426338 452.16232535 39.97104351 452.00938416 41.73783875 C451.59647795 46.49718791 451.17964505 51.25618534 450.76179123 56.01510239 C450.4971492 59.03250428 450.23365355 62.05000427 449.9704895 65.0675354 C447.03751216 98.68615247 443.97292905 132.29202799 440.86306763 165.89468384 C438.21846167 194.47553484 435.66759755 223.06240093 433.2263298 251.6613121 C430.77044348 280.42595896 428.16658675 309.17495539 425.496521 337.92047119 C423.59760001 358.37052291 421.73535065 378.82286146 419.97265625 399.28515625 C419.850347 400.70469919 419.850347 400.70469919 419.72556686 402.15291977 C418.94009643 411.2776738 418.15987148 420.402863 417.38756657 429.52874088 C417.10778436 432.83108108 416.82631307 436.13327618 416.54461479 439.43545341 C416.35331552 441.6872894 416.16475526 443.93934323 415.97633362 446.19142151 C415.86074506 447.54893154 415.74502533 448.9064304 415.62915039 450.26391602 C415.48214439 452.00875023 415.48214439 452.00875023 415.33216858 453.78883362 C415.01139841 456.8898084 414.54806321 459.93180089 414 463 C410.10611894 464.14806004 406.21167258 465.29414861 402.31640625 466.4375 C398.57266808 467.53647515 394.83093991 468.64206699 391.08984375 469.75 C381.09388652 472.69994075 371.11535865 475.52398489 360.984375 477.97265625 C356.27380046 479.15029989 351.64218898 480.58026314 347 482 C340.34781962 484.03362692 333.69262971 485.89413091 326.93310547 487.53344727 C319.66778336 489.3019916 312.47926673 491.33308732 305.28222656 493.35888672 C301.52390951 494.414657 297.76179211 495.45669367 294 496.5 C292.49998134 496.91659949 290.99998135 497.33326619 289.5 497.75 C280.5 500.25 271.5 502.75 262.5 505.25 C261.75669434 505.45665283 261.01338867 505.66330566 260.24755859 505.8762207 C258.75606923 506.29016328 257.26420947 506.70277374 255.77197266 507.11401367 C251.88757131 508.18640744 248.01340102 509.28516076 244.1484375 510.42578125 C243.34921875 510.6578125 242.55 510.88984375 241.7265625 511.12890625 C240.21100077 511.56947652 238.6977442 512.01809551 237.1875 512.4765625 C229.99286747 514.54936555 223.86899679 514.5751311 216.625 512.3125 C214.81128906 511.76335937 214.81128906 511.76335937 212.9609375 511.203125 C212.31995117 511.00654297 211.67896484 510.80996094 211.01855469 510.60742188 C207.44590677 509.5323435 203.84696428 508.55250087 200.25 507.5625 C198.71348441 507.1369254 197.17702657 506.7111423 195.640625 506.28515625 C194.48916992 505.96635498 194.48916992 505.96635498 193.31445312 505.64111328 C189.5423701 504.59623037 185.77122533 503.5479734 182 502.5 C180.50000467 502.08331654 179.00000466 501.66664988 177.5 501.25 C155 495 155 495 132.5 488.75 C131.38612915 488.440625 131.38612915 488.440625 130.24975586 488.125 C128.75052301 487.70850124 127.25133675 487.2918347 125.75219727 486.875 C121.99082511 485.8293802 118.22867541 484.78673435 114.46484375 483.75 C107.22640992 481.75289464 100.0061263 479.7157001 92.8125 477.5625 C85.01315548 475.23167204 77.14571498 473.19674112 69.26293945 471.16918945 C63.02402517 469.55503497 56.85704303 467.82500816 50.71875 465.859375 C47.49686908 464.84096436 44.25018763 463.92358704 41 463 C40.92340652 462.11766693 40.84681305 461.23533386 40.76789856 460.32626343 C39.86500926 449.92920255 38.9597923 439.53234561 38.05318069 429.13560867 C37.81354952 426.38703804 37.57411411 423.63845041 37.33468628 420.88986206 C35.73923047 402.58281015 34.13929831 384.27654137 32.421875 365.98046875 C32.30394089 364.72280701 32.18600677 363.46514526 32.0644989 362.16937256 C31.52426606 356.42456938 30.9777468 350.68044019 30.4230957 344.93701172 C30.2312278 342.91764843 30.03941125 340.89828026 29.84765625 338.87890625 C29.76050354 337.99808884 29.67335083 337.11727142 29.58355713 336.20976257 C29.50579041 335.38458633 29.42802368 334.5594101 29.34790039 333.70922852 C29.28018936 333.01120621 29.21247833 332.3131839 29.14271545 331.5940094 C28.93039665 327.73488301 29 323.86496258 29 320 C59.03 320 89.06 320 120 320 C122.31175628 337.33817209 122.31175628 337.33817209 123.0703125 345.8515625 C123.15626678 346.79832855 123.24222107 347.7450946 123.33078003 348.72055054 C123.50882607 350.69473402 123.68518485 352.66907039 123.85986328 354.64355469 C124.12523038 357.62759058 124.40027378 360.61063532 124.67578125 363.59375 C125.56367182 373.42304793 126.3165228 383.12214393 126 393 C126.70431152 393.091604 127.40862305 393.18320801 128.13427734 393.27758789 C135.73178574 394.31136628 142.90011019 396.31653386 150.2409668 398.47509766 C157.62400229 400.63614343 165.04680075 402.59617079 172.5 404.5 C180.71884477 406.60619467 188.90964434 408.77567824 197.0625 411.125 C197.90458008 411.36613525 198.74666016 411.60727051 199.61425781 411.85571289 C203.74701315 413.04394061 207.86826186 414.26201272 211.98046875 415.51953125 C213.5702925 415.99225478 215.16013538 416.46491395 216.75 416.9375 C217.45261963 417.16131348 218.15523926 417.38512695 218.87915039 417.61572266 C226.89409344 419.96646608 234.04005496 418.23931394 241.8125 415.75 C248.16609785 413.79548514 254.54093394 412.07043471 261 410.5 C267.21783927 408.98191831 273.37352628 407.35299772 279.5 405.5 C286.45625646 403.39602829 293.46277393 401.60401737 300.5234375 399.88598633 C306.95554725 398.30488458 313.30014335 396.50237225 319.62109375 394.5234375 C322.95513917 393.50011663 325.46653127 393 329 393 C329.03883301 392.14913818 329.07766602 391.29827637 329.11767578 390.42163086 C329.89409173 375.50041295 331.31800127 360.63281174 332.6751709 345.75585938 C333.06881028 341.43520425 333.45896614 337.11423357 333.84948921 332.79329586 C334.15568951 329.40585541 334.46250969 326.01847699 334.77096558 322.63124084 C336.2134308 306.75696394 337.59898327 290.87818966 339 275 C235.05 275 131.1 275 24 275 C22.02 251.57 20.04 228.14 18 204 C17.67 201.03 17.34 198.06 17 195 C17 191.37 17 187.74 17 184 C126.23 184 235.46 184 348 184 C348 180.04 348 176.08 348 172 C350.31 145.27 352.62 118.54 355 91 C240.49 91 125.98 91 8 91 C0 4 0 4 0 0 Z " fill="#FEFEFE" transform="translate(135,353)"/>
<path d="M0 0 C97.68 0 195.36 0 296 0 C296 8.46476163 295.87543893 16.66303028 295.1875 25.0625 C295.05601562 26.72853271 295.05601562 26.72853271 294.921875 28.42822266 C294.15847277 37.77074957 293.14836092 47.07994772 292.10620117 56.39477539 C291.08067848 65.75113521 290.38798686 75.10868256 289.76953125 84.49951172 C289.13195853 93.86582083 288.15691326 103.17233384 287.10546875 112.5 C286.20407032 120.65811107 285.53926689 128.81045542 285 137 C284.30605557 147.53854591 283.28838622 158.00599947 282.10546875 168.5 C281.20407032 176.65811107 280.53926689 184.81045542 280 193 C279.30605557 203.53854591 278.28838622 214.00599947 277.10546875 224.5 C276.20407032 232.65811107 275.53926689 240.81045542 275 249 C274.30712396 259.52232082 273.29412795 269.97410451 272.10986328 280.45166016 C271.02339848 290.26582818 270.27782365 300.08819666 269.64648438 309.94140625 C269.53916992 311.59076172 269.53916992 311.59076172 269.4296875 313.2734375 C269.37022949 314.23685059 269.31077148 315.20026367 269.24951172 316.19287109 C268.98533631 319.16497373 268.50295916 322.05991339 268 325 C267.82762694 327.39407023 267.68422206 329.79032073 267.5625 332.1875 C267.24274228 337.87592465 266.76465945 343.5253293 266.125 349.1875 C265.03334995 358.94090463 264.27338244 368.71744763 263.5 378.5 C262.7066061 388.52301321 261.90747963 398.53263643 260.76953125 408.5234375 C259.81807625 417.16452065 259.18623962 425.83474217 258.5 434.5 C257.70623535 444.52299366 256.90748155 454.53261965 255.76953125 464.5234375 C254.81807625 473.16452065 254.18623962 481.83474217 253.5 490.5 C252.70635613 500.52146858 251.90975735 510.52998591 250.76953125 520.51904297 C249.64011101 530.7601999 248.92638829 541.04623131 248.140625 551.31835938 C247.57315126 558.63184617 246.93193616 565.91819539 246.03515625 573.19921875 C244.72520534 583.83607653 243.85156688 594.51067895 242.9375 605.1875 C242.59518015 609.18123164 242.24965444 613.17466843 241.90234375 617.16796875 C241.82628403 618.06799118 241.7502243 618.96801361 241.67185974 619.89530945 C241.2881662 624.30653747 240.81051623 628.64141219 240 633 C218.21501374 640.15872615 196.0672488 646.13759281 173.91918945 652.05664062 C162.47149206 655.12429608 151.04796564 658.27919676 139.625 661.4375 C138.08169006 661.86418976 138.08169006 661.86418976 136.50720215 662.29949951 C123.45127446 665.91170287 110.41155709 669.57228534 97.39501953 673.32397461 C88.88419512 675.76929246 80.34035452 678.07704058 71.78393555 680.35693359 C63.83025976 682.48474531 55.91170648 684.72147663 48 687 C38.59823837 689.70113478 29.18735782 692.36318656 19.75 694.9375 C18.15285156 695.37932617 18.15285156 695.37932617 16.5234375 695.83007812 C15.01910156 696.23709961 15.01910156 696.23709961 13.484375 696.65234375 C12.61522461 696.88945068 11.74607422 697.12655762 10.85058594 697.37084961 C7.27913618 698.15910124 3.62915972 698.54635504 0 699 C-0.33 667.98 -0.66 636.96 -1 605 C3.95 603.68 8.9 602.36 14 601 C18.0022142 599.88203455 22.00217225 598.75829439 26 597.625 C34.16474406 595.32169574 42.34529745 593.10817464 50.5625 591 C59.43173679 588.72173385 68.21649385 586.2143123 76.99560547 583.61206055 C84.99813573 581.25465014 93.0482366 579.12973484 101.12890625 577.05859375 C106.95893784 575.55667425 112.70141673 573.89316487 118.4375 572.0625 C123.4244352 570.57516845 128.46028552 569.2952968 133.5 568 C140.55274439 566.18616457 147.53468893 564.2796129 154.4765625 562.07421875 C159.43852748 560.56142455 164.43500222 559.18440884 169.4375 557.8125 C170.38633057 557.55017578 171.33516113 557.28785156 172.31274414 557.01757812 C173.21887451 556.77072266 174.12500488 556.52386719 175.05859375 556.26953125 C176.26986938 555.93852417 176.26986938 555.93852417 177.50561523 555.60083008 C180.31980646 554.92296724 183.14362485 554.46444389 186 554 C186.05655258 552.96215363 186.11310516 551.92430725 186.17137146 550.85501099 C186.73385808 540.78011973 187.47192544 530.73211443 188.34765625 520.6796875 C188.48121698 519.12823699 188.61463 517.57677376 188.74790955 516.02529907 C189.10751087 511.84864369 189.47046229 507.67228603 189.83435059 503.4960022 C190.06532645 500.84252942 190.29535788 498.18897623 190.52514648 495.53540039 C193.00280504 466.93879739 195.60230905 438.35423448 198.2528801 409.77320099 C200.80315681 382.27311315 203.26525802 354.76709859 205.625 327.25 C205.77099697 325.54844077 205.91700322 323.84688234 206.0630188 322.14532471 C206.13498694 321.30661016 206.20695509 320.46789562 206.28110409 319.60376549 C206.63915755 315.43115031 206.99726359 311.25853966 207.35546875 307.0859375 C207.42529276 306.27236912 207.49511677 305.45880074 207.56705666 304.62057877 C208.9910165 288.0357685 210.45142655 271.45435436 211.9375 254.875 C212.02599779 253.88709787 212.02599779 253.88709787 212.11628342 252.87923813 C213.73300283 234.83759421 215.38342127 216.79910944 217.046875 198.76171875 C217.22575379 196.82114665 217.40463257 194.88057454 217.58351135 192.94000244 C218.36970463 184.41362439 219.15691979 175.88734598 219.94890308 167.3615036 C220.35646321 162.97158234 220.76258709 158.58152918 221.16796875 154.19140625 C221.24624342 153.34426811 221.32451809 152.49712997 221.40516472 151.62432098 C222.70523646 137.52311506 223.91015357 123.41510651 225.03959656 109.29920959 C225.12611638 108.2319461 225.12611638 108.2319461 225.21438408 107.14312172 C225.36840064 105.24214609 225.52008885 103.34098222 225.67158508 101.43980408 C226.00499428 97.9476901 226.50389473 94.47273686 227 91 C76.85 91 -73.3 91 -228 91 C-228 90.67 -228 90.34 -228 90 C-152.76 90 -77.52 90 0 90 C0 60.3 0 30.6 0 0 Z " fill="#2965F0" transform="translate(363,262)"/>
<path d="M0 0 C30.03 0 60.06 0 91 0 C93.31175628 17.33817209 93.31175628 17.33817209 94.0703125 25.8515625 C94.15626678 26.79832855 94.24222107 27.7450946 94.33078003 28.72055054 C94.50882607 30.69473402 94.68518485 32.66907039 94.85986328 34.64355469 C95.12523038 37.62759058 95.40027378 40.61063532 95.67578125 43.59375 C96.56367182 53.42304793 97.3165228 63.12214393 97 73 C97.70431152 73.091604 98.40862305 73.18320801 99.13427734 73.27758789 C106.73178574 74.31136628 113.90011019 76.31653386 121.2409668 78.47509766 C128.62400641 80.63614464 136.04682824 82.59605483 143.5 84.5 C155.06645436 87.46575753 166.53170181 90.67277769 178 94 C184.93 95.98 191.86 97.96 199 100 C199 131.02 199 162.04 199 194 C194.78120415 193.39731488 191.03704475 192.85366373 186.98828125 191.80078125 C186.07570557 191.56407715 185.16312988 191.32737305 184.22290039 191.08349609 C183.26246826 190.82906738 182.30203613 190.57463867 181.3125 190.3125 C180.30372803 190.04775879 179.29495605 189.78301758 178.25561523 189.51025391 C170.80974472 187.53425911 163.4339889 185.36874515 156.06958008 183.1105957 C151.07609517 181.58962326 146.07523096 180.21907879 141 179 C134.05604262 177.32001031 127.25213416 175.30141076 120.421875 173.2109375 C115.30751155 171.65780259 110.19520222 170.25690376 105 169 C98.92989596 167.53142644 92.97137123 165.82747474 87 164 C81.11098949 162.19872753 75.23636389 160.5094116 69.25 159.0625 C61.55079702 157.19766792 53.97953837 154.97104481 46.38525391 152.72045898 C38.01269598 150.25587588 29.59352653 148.01344947 21.13452148 145.86572266 C20.22645752 145.6341748 19.31839355 145.40262695 18.3828125 145.1640625 C17.58246582 144.96248535 16.78211914 144.7609082 15.95751953 144.55322266 C14 144 14 144 12 143 C11.52738953 140.20600891 11.52738953 140.20600891 11.2097168 136.3996582 C11.14908774 135.70494384 11.08845869 135.01022947 11.02599239 134.29446316 C10.82481812 131.9639023 10.63713632 129.63244557 10.44921875 127.30078125 C10.30950027 125.6544054 10.16888837 124.00810516 10.0274353 122.36187744 C9.72696159 118.84512438 9.43223819 115.32795569 9.14212036 111.81033325 C8.68928903 106.31999288 8.22490639 100.83067525 7.75756836 95.34155273 C7.68025891 94.43326249 7.60294947 93.52497225 7.52329731 92.58915806 C7.36706496 90.75376084 7.2107975 88.91836662 7.05449486 87.08297539 C6.81978492 84.32191871 6.5863277 81.56075835 6.35310364 78.79957581 C5.42697971 67.85640798 4.45933989 56.91828662 3.4296875 45.984375 C3.25204613 44.09751228 3.25204613 44.09751228 3.07081604 42.17253113 C2.63029442 37.51279006 2.18719249 32.8533205 1.7371521 28.19448853 C1.43736381 25.08959866 1.1422598 21.98429154 0.84765625 18.87890625 C0.76051361 17.99809387 0.67337097 17.11728149 0.58358765 16.20977783 C0.50581085 15.38459656 0.42803406 14.55941528 0.34790039 13.70922852 C0.28018936 13.01120621 0.21247833 12.3131839 0.14271545 11.5940094 C-0.06960335 7.73488301 0 3.86496258 0 0 Z " fill="#EAEAEB" transform="translate(164,673)"/>
<path d="M0 0 C75.24 0 150.48 0 228 0 C228 29.7 228 59.4 228 90 C270.24 90 312.48 90 356 90 C356 92.97 356 95.94 356 99 C355.67 99 355.34 99 355 99 C355 96.36 355 93.72 355 91 C240.49 91 125.98 91 8 91 C0 4 0 4 0 0 Z " fill="#EAEAEB" transform="translate(135,353)"/>
<path d="M0 0 C69.63 0 139.26 0 211 0 C211 29.7 211 59.4 211 90 C247.96 90 284.92 90 323 90 C323 91.65 323 93.3 323 95 C322.67 93.68 322.34 92.36 322 91 C218.05 91 114.1 91 7 91 C5.02 67.57 3.04 44.14 1 20 C0.67 17.03 0.34 14.06 0 11 C0 7.37 0 3.74 0 0 Z " fill="#EAEAEB" transform="translate(152,537)"/>
<path d="M0 0 C36.96 0 73.92 0 112 0 C112 13.2 112 26.4 112 40 C111 41 111 41 108.45005798 41.12025452 C106.74795921 41.1169236 106.74795921 41.1169236 105.01147461 41.11352539 C103.73022202 41.11344986 102.44896942 41.11337433 101.12889099 41.11329651 C99.72004152 41.10818909 98.31119244 41.10297309 96.90234375 41.09765625 C95.46887766 41.09579202 94.03541093 41.09436814 92.60194397 41.09336853 C88.82240043 41.08954372 85.0428951 41.07971377 81.2633667 41.06866455 C77.40930702 41.05844963 73.55524118 41.05387074 69.70117188 41.04882812 C62.13409713 41.03809146 54.56705391 41.02101549 47 41 C47 43.31 47 45.62 47 48 C68.45 48 89.9 48 112 48 C112.04010881 70.91995627 112.04010881 70.91995627 112.04882812 80.65429688 C112.05481692 87.30884595 112.06191818 93.96338133 112.07543945 100.61791992 C112.08626715 105.98007419 112.09227658 111.34221378 112.09487724 116.70437813 C112.09673171 118.75500278 112.10035272 120.8056266 112.10573006 122.85624504 C112.11293893 125.71790203 112.11399101 128.57949757 112.11352539 131.44116211 C112.11712067 132.29783478 112.12071594 133.15450745 112.12442017 134.03713989 C112.11405216 139.88594784 112.11405216 139.88594784 111 141 C109.55786001 141.09558036 108.11105921 141.12188394 106.66575623 141.12025452 C105.73041046 141.12162918 104.7950647 141.12300385 103.83137512 141.12442017 C102.79703842 141.12082489 101.76270172 141.11722961 100.69702148 141.11352539 C99.61422913 141.11367142 98.53143677 141.11381744 97.41583252 141.1139679 C93.81756626 141.11326823 90.21935103 141.10547333 86.62109375 141.09765625 C84.13387582 141.09579226 81.64665752 141.09436827 79.15943909 141.09336853 C73.26978809 141.0899335 67.3801561 141.08204277 61.49051291 141.07201904 C54.12974626 141.05976246 46.76897736 141.05437791 39.40820312 141.04882812 C26.27212419 141.03808815 13.13606735 141.02049013 0 141 C0 126.81 0 112.62 0 98 C21.45 98 42.9 98 65 98 C65 95.69 65 93.38 65 91 C64.20042374 91.00222061 63.40084747 91.00444122 62.57704163 91.00672913 C55.05740361 91.02673092 47.53777841 91.04197355 40.01812077 91.05181217 C36.15179882 91.05704026 32.28549879 91.06413654 28.41918945 91.07543945 C24.69096599 91.086271 20.96276366 91.0922774 17.23452568 91.09487724 C15.80910344 91.09673101 14.38368241 91.10035071 12.95826912 91.10573006 C10.96836592 91.11294393 8.97844166 91.11340808 6.98852539 91.11352539 C5.85379288 91.115746 4.71906036 91.11796661 3.54994202 91.12025452 C1 91 1 91 0 90 C-0.0951949 87.20006693 -0.12552637 84.42497184 -0.11352539 81.62475586 C-0.11364593 80.73253861 -0.11376646 79.84032137 -0.11389065 78.92106724 C-0.11314135 76.01896781 -0.10551237 73.11693177 -0.09765625 70.21484375 C-0.09618688 68.42875194 -0.09516614 66.64265971 -0.09460449 64.85656738 C-0.08935101 58.21687171 -0.07538993 51.57718524 -0.0625 44.9375 C-0.041875 30.108125 -0.02125 15.27875 0 0 Z " fill="#000000" transform="translate(302,0)"/>
<path d="M0 0 C36.63 0 73.26 0 111 0 C111 13.53 111 27.06 111 41 C89.88 41 68.76 41 47 41 C47 43.31 47 45.62 47 48 C68.12 48 89.24 48 111 48 C111 78.69 111 109.38 111 141 C74.37 141 37.74 141 0 141 C0 126.81 0 112.62 0 98 C21.12 98 42.24 98 64 98 C64 95.69 64 93.38 64 91 C42.88 91 21.76 91 0 91 C0 60.97 0 30.94 0 0 Z " fill="#000000" transform="translate(435,0)"/>
<path d="M0 0 C36.63 0 73.26 0 111 0 C111 7.8913224 110.83641161 15.3876599 110.046875 23.18359375 C109.94665039 24.22200409 109.84642578 25.26041443 109.74316406 26.33029175 C109.41711124 29.69986891 109.08348735 33.06865133 108.75 36.4375 C108.28908213 41.17943858 107.83214469 45.92175888 107.375 50.6640625 C107.2592865 51.85882706 107.143573 53.05359161 107.02435303 54.28456116 C105.77315755 67.24602397 104.62783017 80.21648905 103.49987793 93.18917847 C103.34070483 95.01964911 103.18101572 96.85007497 103.02075195 98.68045044 C102.87763664 100.31556632 102.73575117 101.9507906 102.59545898 103.58615112 C102.17309457 108.40807847 101.6259101 113.20011129 101 118 C99.98353394 118.27094482 99.98353394 118.27094482 98.9465332 118.54736328 C87.31363331 121.65247761 75.68809078 124.76797364 64.125 128.125 C56.53820245 130.3250049 48.91712112 132.30179693 41.2434082 134.17407227 C36.68805535 135.29566048 32.17369654 136.49490827 27.68188477 137.84960938 C18.43267526 140.63247303 9.48986768 142.76708996 0 145 C0 97.15 0 49.3 0 0 Z " fill="#2965F1" transform="translate(363,628)"/>
<path d="M0 0 C36.63 0 73.26 0 111 0 C111 15.51 111 31.02 111 47 C89.88 47 68.76 47 47 47 C47 61.85 47 76.7 47 92 C68.12 92 89.24 92 111 92 C111 107.51 111 123.02 111 139 C74.37 139 37.74 139 0 139 C0 93.13 0 47.26 0 0 Z " fill="#000000" transform="translate(170,0)"/>
<path d="M0 0 C41.91 0 83.82 0 127 0 C127 31.0876896 122.64421004 62.02496816 120 93 C10.77 93 -98.46 93 -211 93 C-211.33 94.32 -211.66 95.64 -212 97 C-212 95.35 -212 93.7 -212 92 C-142.04 92 -72.08 92 0 92 C0 61.64 0 31.28 0 0 Z " fill="#2A65F0" transform="translate(363,444)"/>
</svg>
