<?xml version="1.0" encoding="UTF-8"?>
<svg version="1.1" xmlns="http://www.w3.org/2000/svg" width="283" height="178">
<path d="M0 0 C93.39 0 186.78 0 283 0 C283 58.74 283 117.48 283 178 C189.61 178 96.22 178 0 178 C0 119.26 0 60.52 0 0 Z " fill="#34814B" transform="translate(0,0)"/>
<path d="M0 0 C92.73 0 185.46 0 281 0 C281 19.47 281 38.94 281 59 C188.27 59 95.54 59 0 59 C0 39.53 0 20.06 0 0 Z " fill="#FEFEFE" transform="translate(1,60)"/>
<path d="M0 0 C92.73 0 185.46 0 281 0 C281 19.47 281 38.94 281 59 C188.27 59 95.54 59 0 59 C0 39.53 0 20.06 0 0 Z " fill="#D98149" transform="translate(1,1)"/>
<path d="M0 0 C4.75111611 3.60122122 8.78980484 8.01444017 10 14 C10.75772155 22.33493706 10.75684815 30.05195609 5.55859375 36.8984375 C0.23896817 42.74879138 -5.98296326 46.1134943 -13.9375 46.5 C-21.1900351 46.15088729 -27.50510702 43.73585604 -32.875 38.8125 C-38.15113805 32.95012439 -40.83097977 26.47404538 -40.4375 18.54296875 C-39.03825192 10.4098393 -34.52694902 4.69367445 -28.2578125 -0.4375 C-19.56281044 -6.45480247 -8.78489351 -4.93696495 0 0 Z " fill="#79BCE5" transform="translate(156,68)"/>
<path d="M0 0 C0.33 3.3 0.66 6.6 1 10 C0.34 9.67 -0.32 9.34 -1 9 C-0.67 10.32 -0.34 11.64 0 13 C-0.99 13.33 -1.98 13.66 -3 14 C-5.1875 12.5625 -5.1875 12.5625 -7 11 C-6.01 12.32 -5.02 13.64 -4 15 C-4.33 15.66 -4.66 16.32 -5 17 C-5.99 17 -6.98 17 -8 17 C-7.34 17.66 -6.68 18.32 -6 19 C-7.65 19 -9.3 19 -11 19 C-9.68 19.66 -8.36 20.32 -7 21 C-10.96 21.495 -10.96 21.495 -15 22 C-12.36 22.33 -9.72 22.66 -7 23 C-7.99 23.66 -8.98 24.32 -10 25 C-8.68 25.33 -7.36 25.66 -6 26 C-7.98 26.99 -7.98 26.99 -10 28 C-8.02 28.33 -6.04 28.66 -4 29 C-5.65 30.98 -7.3 32.96 -9 35 C-7.02 33.68 -5.04 32.36 -3 31 C-2.34 31.33 -1.68 31.66 -1 32 C-1.33 33.98 -1.66 35.96 -2 38 C-1.01 37.505 -1.01 37.505 0 37 C0.33 37.66 0.66 38.32 1 39 C1.19491452 37.54263913 1.38069358 36.08405407 1.5625 34.625 C1.66691406 33.81289062 1.77132812 33.00078125 1.87890625 32.1640625 C2.18237328 29.95100814 2.18237328 29.95100814 1 28 C4 29 4 29 6 31 C6.66 31 7.32 31 8 31 C8.66 32.65 9.32 34.3 10 36 C11.485 35.505 11.485 35.505 13 35 C12.01 33.68 11.02 32.36 10 31 C10.33 30.34 10.66 29.68 11 29 C14.465 31.97 14.465 31.97 18 35 C17.154375 34.0925 16.30875 33.185 15.4375 32.25 C12.97396749 29.32974517 12.97396749 29.32974517 13.1875 26.625 C13.455625 26.08875 13.72375 25.5525 14 25 C15.65 25 17.3 25 19 25 C17.35 24.67 15.7 24.34 14 24 C14 23.67 14 23.34 14 23 C17.96 22.505 17.96 22.505 22 22 C20.35 21.67 18.7 21.34 17 21 C18.32 20.34 19.64 19.68 21 19 C19.02 19 17.04 19 15 19 C17 17 17 17 19 16 C16.50935112 15.31292445 14.62113708 15 12 15 C13.32 13.35 14.64 11.7 16 10 C14.68 10.99 13.36 11.98 12 13 C12.33 11.68 12.66 10.36 13 9 C12.01 9 11.02 9 10 9 C9.34 9.66 8.68 10.32 8 11 C7.67 10.34 7.34 9.68 7 9 C6.67 10.98 6.34 12.96 6 15 C5.67 15 5.34 15 5 15 C5 10.05 5 5.1 5 0 C12.30266406 0 14.70730124 0.52156259 20 5 C25.77262532 11.42235804 27.3774364 16.30427276 27.2734375 24.92578125 C26.72668966 31.07278913 24.2031381 35.14468883 19.75 39.3125 C14.58129541 43.357094 8.81231262 45.71222085 2.140625 45.41015625 C-4.8682456 44.06721572 -10.40710298 40.31217539 -14.84375 34.84375 C-18.74499897 28.62283948 -18.97336874 22.15214425 -18 15 C-14.90988308 7.83795644 -8.3412507 0 0 0 Z " fill="#EEF6FB" transform="translate(137,67)"/>
<path d="M0 0 C4.75111611 3.60122122 8.78980484 8.01444017 10 14 C10.75772155 22.33493706 10.75684815 30.05195609 5.55859375 36.8984375 C0.23896817 42.74879138 -5.98296326 46.1134943 -13.9375 46.5 C-21.1900351 46.15088729 -27.50510702 43.73585604 -32.875 38.8125 C-38.15113805 32.95012439 -40.83097977 26.47404538 -40.4375 18.54296875 C-39.03825192 10.4098393 -34.52694902 4.69367445 -28.2578125 -0.4375 C-19.56281044 -6.45480247 -8.78489351 -4.93696495 0 0 Z M-33.84375 8.25390625 C-37.83003131 14.27372972 -37.67148515 19.90265691 -37 27 C-35.30493863 33.28289215 -31.29649266 37.41313471 -26 41 C-20.05789226 44.24114968 -15.0044426 45.00111065 -8.515625 43.37890625 C-1.99933995 41.15744544 2.22392567 37.76065885 6 32 C8.92733297 25.98816182 9.13379309 19.08029728 7.34765625 12.65234375 C4.47249114 6.24800601 -0.35490067 2.46949963 -6.375 -0.875 C-17.30679844 -4.2676271 -26.75215513 -0.67243265 -33.84375 8.25390625 Z " fill="#0A92D5" transform="translate(156,68)"/>
<path d="M0 0 C2.97 0 5.94 0 9 0 C7.68 0.33 6.36 0.66 5 1 C4.97873047 2.55460937 4.97873047 2.55460937 4.95703125 4.140625 C4.91011907 5.51046057 4.86187173 6.88025087 4.8125 8.25 C4.80669922 8.93191406 4.80089844 9.61382812 4.79492188 10.31640625 C4.70703125 12.328125 4.70703125 12.328125 4 16 C1.484375 18.30078125 1.484375 18.30078125 -1 20 C-1.75015195 22.95691709 -1.75015195 22.95691709 -1 26 C-0.319375 26.763125 0.36125 27.52625 1.0625 28.3125 C3.58317418 31.80891902 3.1406914 33.69293982 2.5546875 37.81640625 C1.97725263 40.08954776 1.12552791 41.94893468 0 44 C-0.33 42.35 -0.66 40.7 -1 39 C-1.66 39.66 -2.32 40.32 -3 41 C-2.67 38.69 -2.34 36.38 -2 34 C-5.00259517 33.66781808 -5.00259517 33.66781808 -6.6875 35.5 C-7.120625 35.995 -7.55375 36.49 -8 37 C-8.66 36.67 -9.32 36.34 -10 36 C-8.02 33.525 -8.02 33.525 -6 31 C-8.31 30.67 -10.62 30.34 -13 30 C-12 29 -11 28 -10 27 C-11.98 27 -13.96 27 -16 27 C-16 26.67 -16 26.34 -16 26 C-14.35 25.67 -12.7 25.34 -11 25 C-12.65 24.67 -14.3 24.34 -16 24 C-15.67 23.34 -15.34 22.68 -15 22 C-12.9375 21.375 -12.9375 21.375 -11 21 C-11.99 20.34 -12.98 19.68 -14 19 C-12.02 19 -10.04 19 -8 19 C-8.66 18.34 -9.32 17.68 -10 17 C-8.68 16.67 -7.36 16.34 -6 16 C-6 13.23776722 -7.31425163 12.10718546 -9 10 C-6.53199953 11.15173355 -4.95216435 12.04783565 -3 14 C-2.34 13.34 -1.68 12.68 -1 12 C-1.32041397 9.39719432 -1.32041397 9.39719432 -2 7 C-1.34 7.66 -0.68 8.32 0 9 C0 6.03 0 3.06 0 0 Z " fill="#8FC8E9" transform="translate(137,66)"/>
<path d="M0 0 C1.60407328 -0.02708567 3.2082785 -0.04643483 4.8125 -0.0625 C5.70582031 -0.07410156 6.59914062 -0.08570312 7.51953125 -0.09765625 C10 0 10 0 13 1 C11.7883305 7.46223734 9.02904365 11.73040677 4 16 C-1.91025893 19.43083323 -7.24131335 20.50064346 -14 20 C-12.68 19.67 -11.36 19.34 -10 19 C-9.67 14.71 -9.34 10.42 -9 6 C-8.01 6 -7.02 6 -6 6 C-5.34 7.65 -4.68 9.3 -4 11 C-3.01 10.67 -2.02 10.34 -1 10 C-1.99 8.68 -2.98 7.36 -4 6 C-3.67 5.34 -3.34 4.68 -3 4 C-0.69 5.98 1.62 7.96 4 10 C3.154375 9.0925 2.30875 8.185 1.4375 7.25 C-0.00390625 5.703125 -0.00390625 5.703125 -1 4 C-0.65234375 1.796875 -0.65234375 1.796875 0 0 Z " fill="#DDEDF8" transform="translate(151,92)"/>
<path d="M0 0 C0.33 3.3 0.66 6.6 1 10 C0.34 9.67 -0.32 9.34 -1 9 C-0.67 10.32 -0.34 11.64 0 13 C-0.99 13.33 -1.98 13.66 -3 14 C-5.1875 12.5625 -5.1875 12.5625 -7 11 C-6.01 12.32 -5.02 13.64 -4 15 C-4.33 15.66 -4.66 16.32 -5 17 C-6.6266848 16.71788123 -8.25132896 16.42397625 -9.875 16.125 C-10.77992187 15.96257812 -11.68484375 15.80015625 -12.6171875 15.6328125 C-15 15 -15 15 -17 13 C-13.00164224 6.8964463 -7.93910368 0 0 0 Z " fill="#D3E9F6" transform="translate(137,67)"/>
<path d="M0 0 C0.33 0 0.66 0 1 0 C0.979375 0.66386719 0.95875 1.32773438 0.9375 2.01171875 C0.95586224 7.44653578 0.95586224 7.44653578 3.84765625 11.77734375 C5.85824323 13.00071678 7.84110662 14.06562701 10 15 C9.01 15.33 8.02 15.66 7 16 C6.67 17.65 6.34 19.3 6 21 C5.01 21 4.02 21 3 21 C3.20625 21.7425 3.4125 22.485 3.625 23.25 C4.06478289 26.47507455 3.48252596 27.19967319 2 30 C1.61250787 32.32495277 1.27017161 34.65851268 1 37 C0.67 37 0.34 37 0 37 C-0.01417969 36.10796875 -0.02835938 35.2159375 -0.04296875 34.296875 C-0.09066406 33.12640625 -0.13835937 31.9559375 -0.1875 30.75 C-0.22230469 29.58984375 -0.25710937 28.4296875 -0.29296875 27.234375 C-1.18050129 23.17428139 -2.69336298 22.34631073 -6 20 C-6.625 17 -6.625 17 -6 14 C-5.195625 13.4225 -4.39125 12.845 -3.5625 12.25 C-0.50615961 9.56638405 -0.55081793 8.66942978 -0.1875 4.75 C-0.10289692 3.16769377 -0.03325647 1.58421738 0 0 Z " fill="#1799D7" transform="translate(141,72)"/>
<path d="M0 0 C2.97 0 5.94 0 9 0 C7.68 0.33 6.36 0.66 5 1 C4.98582031 2.03640625 4.97164062 3.0728125 4.95703125 4.140625 C4.91011907 5.51046057 4.86187173 6.88025087 4.8125 8.25 C4.80669922 8.93191406 4.80089844 9.61382812 4.79492188 10.31640625 C4.6243492 14.2206252 4.29351169 15.7141295 1.44921875 18.484375 C0.23685547 19.23460937 0.23685547 19.23460937 -1 20 C-1.66 19.67 -2.32 19.34 -3 19 C-2.67 18.34 -2.34 17.68 -2 17 C-1.00279033 13.31032421 -1.04909175 10.69797652 -2 7 C-1.34 7.66 -0.68 8.32 0 9 C0 6.03 0 3.06 0 0 Z " fill="#D4E8F6" transform="translate(137,66)"/>
<path d="M0 0 C0.99 0.33 1.98 0.66 3 1 C2.45859375 1.64001953 2.45859375 1.64001953 1.90625 2.29296875 C-2.73280926 8.54281247 -2.92481888 14.40877833 -2 22 C-1.24252103 24.63396097 -0.34348474 26.59292318 1 29 C0.01 29.33 -0.98 29.66 -2 30 C-5.39353373 23.72802247 -7.30493413 18.15538879 -6 11 C-2.83257919 2.83257919 -2.83257919 2.83257919 0 0 Z " fill="#219BD8" transform="translate(122,73)"/>
<path d="M0 0 C1.46067199 0.45082469 2.91848032 0.91093537 4.375 1.375 C5.18710938 1.63023438 5.99921875 1.88546875 6.8359375 2.1484375 C9 3 9 3 11 5 C9.35 5 7.7 5 6 5 C7.32 5.66 8.64 6.32 10 7 C7.36 7.33 4.72 7.66 2 8 C4.64 8.33 7.28 8.66 10 9 C6.46588679 11.12046792 3.05606165 11.53199289 -1 12 C-1.02687279 10.18757948 -1.04633715 8.37504767 -1.0625 6.5625 C-1.07410156 5.55316406 -1.08570312 4.54382813 -1.09765625 3.50390625 C-1 1 -1 1 0 0 Z " fill="#FBFDFE" transform="translate(120,81)"/>
<path d="M0 0 C2.31 0 4.62 0 7 0 C7.66 0.66 8.32 1.32 9 2 C7.16172132 5.15133488 5.24027294 8.11964908 3 11 C2.67 10.34 2.34 9.68 2 9 C1.67 10.98 1.34 12.96 1 15 C0.67 15 0.34 15 0 15 C0 10.05 0 5.1 0 0 Z " fill="#E6F2F9" transform="translate(142,67)"/>
<path d="M0 0 C-0.99 0.66 -1.98 1.32 -3 2 C-2.01 3.485 -2.01 3.485 -1 5 C-2.32 5.33 -3.64 5.66 -5 6 C-4.01 6.66 -3.02 7.32 -2 8 C-3.36125 7.9690625 -3.36125 7.9690625 -4.75 7.9375 C-7.86712481 7.86248264 -7.86712481 7.86248264 -10.25 8.625 C-10.8275 8.74875 -11.405 8.8725 -12 9 C-12.66 8.34 -13.32 7.68 -14 7 C-13.34 5.02 -12.68 3.04 -12 1 C-7.95858806 0.36605303 -4.0934693 -0.12404452 0 0 Z " fill="#7FC0E6" transform="translate(161,85)"/>
<path d="M0 0 C0.33 0 0.66 0 1 0 C0.979375 0.66386719 0.95875 1.32773438 0.9375 2.01171875 C0.95586224 7.44653578 0.95586224 7.44653578 3.84765625 11.77734375 C5.85824323 13.00071678 7.84110662 14.06562701 10 15 C9.01 15.33 8.02 15.66 7 16 C6.67 17.65 6.34 19.3 6 21 C5.67 21 5.34 21 5 21 C4.34 18.69 3.68 16.38 3 14 C1.35 14 -0.3 14 -2 14 C-2.66 15.65 -3.32 17.3 -4 19 C-4.89674777 16.48910624 -5.13172674 15.35464891 -4.1875 12.8125 C-3 11 -3 11 -1 10 C-0.53248212 7.64400765 -0.53248212 7.64400765 -0.375 4.9375 C-0.26285156 3.55884766 -0.26285156 3.55884766 -0.1484375 2.15234375 C-0.09945312 1.44207031 -0.05046875 0.73179688 0 0 Z " fill="#3BA3DB" transform="translate(141,72)"/>
<path d="M0 0 C0.47050781 0.42152344 0.94101563 0.84304687 1.42578125 1.27734375 C2.35970703 2.09912109 2.35970703 2.09912109 3.3125 2.9375 C4.23482422 3.75541016 4.23482422 3.75541016 5.17578125 4.58984375 C7.05241958 6.20081559 7.05241958 6.20081559 10 7 C9.875 8.8125 9.875 8.8125 9 11 C5.9375 12.75 5.9375 12.75 3 14 C2.34 11.69 1.68 9.38 1 7 C1.66 6.67 2.32 6.34 3 6 C2.2575 5.071875 2.2575 5.071875 1.5 4.125 C0 2 0 2 0 0 Z " fill="#E7F2FA" transform="translate(147,96)"/>
<path d="M0 0 C0.33 3.3 0.66 6.6 1 10 C0.34 9.67 -0.32 9.34 -1 9 C-0.67 10.32 -0.34 11.64 0 13 C-2.9555377 10.24829249 -5.11563315 7.58029701 -7 4 C-7 3.34 -7 2.68 -7 2 C-4.35261084 0.5393715 -3.10551666 0 0 0 Z " fill="#EBF5FA" transform="translate(137,67)"/>
<path d="M0 0 C0.99 0.33 1.98 0.66 3 1 C3 5.95 3 10.9 3 16 C0.69 16 -1.62 16 -4 16 C-4.33 15.34 -4.66 14.68 -5 14 C-3.5625 11.375 -3.5625 11.375 -2 9 C-1.34 9.66 -0.68 10.32 0 11 C0.19491452 9.54263913 0.38069358 8.08405407 0.5625 6.625 C0.66691406 5.81289062 0.77132812 5.00078125 0.87890625 4.1640625 C1.18237328 1.95100814 1.18237328 1.95100814 0 0 Z " fill="#F5FAFD" transform="translate(138,95)"/>
<path d="M0 0 C1.13643966 3.40931897 0.86747764 4.00335456 -0.4375 7.1875 C-0.72496094 7.90292969 -1.01242188 8.61835937 -1.30859375 9.35546875 C-1.53675781 9.89816406 -1.76492187 10.44085938 -2 11 C-3.98 10.01 -5.96 9.02 -8 8 C-6.49776416 3.79373966 -3.71449966 2.26099979 0 0 Z " fill="#F3F8FC" transform="translate(135,99)"/>
<path d="M0 0 C3.79951706 1.49266742 5.8354862 3.55281135 8 7 C7.75 9.8125 7.75 9.8125 7 12 C5.56163249 11.88541307 4.12429034 11.75790884 2.6875 11.625 C1.48673828 11.52058594 1.48673828 11.52058594 0.26171875 11.4140625 C-2 11 -2 11 -5 9 C-3.02 9 -1.04 9 1 9 C0.34 8.34 -0.32 7.68 -1 7 C0.32 6.67 1.64 6.34 3 6 C3 3.23776722 1.68574837 2.10718546 0 0 Z " fill="#6EB8E3" transform="translate(128,76)"/>
<path d="M0 0 C2.31 0 4.62 0 7 0 C8.31236443 4.4143167 8.31236443 4.4143167 7 6.875 C3.89740743 8.62020832 1.3726293 7.69997967 -2 7 C-1 6 0 5 1 4 C-0.98 4 -2.96 4 -5 4 C-5 3.67 -5 3.34 -5 3 C-3.35 2.67 -1.7 2.34 0 2 C0 1.34 0 0.68 0 0 Z " fill="#73B9E3" transform="translate(126,89)"/>
<path d="M0 0 C1.60407328 -0.02708567 3.2082785 -0.04643483 4.8125 -0.0625 C5.70582031 -0.07410156 6.59914062 -0.08570312 7.51953125 -0.09765625 C10 0 10 0 13 1 C12.67 2.65 12.34 4.3 12 6 C8.44219804 5.39009109 5.3171411 4.4216319 2 3 C2 2.34 2 1.68 2 1 C1.34 0.67 0.68 0.34 0 0 Z " fill="#D0E7F5" transform="translate(151,92)"/>
<path d="M0 0 C0.66 0.33 1.32 0.66 2 1 C1.175 1.763125 0.35 2.52625 -0.5 3.3125 C-3.34055197 5.75434142 -3.34055197 5.75434142 -3 9 C-3.99 9 -4.98 9 -6 9 C-6.66 7.68 -7.32 6.36 -8 5 C-6.71475739 4.13619741 -5.42157581 3.28419631 -4.125 2.4375 C-3.04605469 1.72400391 -3.04605469 1.72400391 -1.9453125 0.99609375 C-1.30335938 0.66738281 -0.66140625 0.33867188 0 0 Z M2 2 C2 2.99 2 3.98 2 5 C1.01 5 0.02 5 -1 5 C-0.01 4.01 0.98 3.02 2 2 Z " fill="#F6FAFD" transform="translate(131,96)"/>
<path d="M0 0 C4.43090471 1.20842856 6.98112756 2.51668565 10 6 C7.18185434 7.40907283 5.82722796 6.50872691 2.875 5.5625 C1.96492188 5.27503906 1.05484375 4.98757812 0.1171875 4.69140625 C-0.58148438 4.46324219 -1.28015625 4.23507813 -2 4 C-1.34 2.68 -0.68 1.36 0 0 Z " fill="#CCE5F5" transform="translate(122,77)"/>
<path d="M0 0 C1.125 2.8125 1.125 2.8125 2 6 C1.01 7.485 1.01 7.485 0 9 C-1.5625 7.75 -1.5625 7.75 -3 6 C-2.67 4.68 -2.34 3.36 -2 2 C-5.96 2 -9.92 2 -14 2 C-13.67 1.34 -13.34 0.68 -13 0 C-8.33710678 -0.85486376 -4.62372246 -1.30042194 0 0 Z " fill="#BCDCF1" transform="translate(135,88)"/>
<path d="M0 0 C2.10827055 3.16240582 2.33817465 4.50657469 2.625 8.1875 C2.69976562 9.08855469 2.77453125 9.98960938 2.8515625 10.91796875 C2.90054688 11.60503906 2.94953125 12.29210937 3 13 C1.68 13.33 0.36 13.66 -1 14 C-1 12.68 -1 11.36 -1 10 C-1.30404678 8.32774271 -1.63128912 6.65919896 -2 5 C-1.34 5.66 -0.68 6.32 0 7 C0 4.69 0 2.38 0 0 Z " fill="#6EB9E3" transform="translate(137,68)"/>
<path d="M0 0 C3 6.625 3 6.625 3 10 C2.34 9.67 1.68 9.34 1 9 C0.67 9.66 0.34 10.32 0 11 C-0.20496094 10.44570312 -0.40992188 9.89140625 -0.62109375 9.3203125 C-0.89050781 8.59585938 -1.15992188 7.87140625 -1.4375 7.125 C-1.70433594 6.40570313 -1.97117188 5.68640625 -2.24609375 4.9453125 C-2.97916854 2.96351155 -2.97916854 2.96351155 -4 1 C-2 0 -2 0 0 0 Z " fill="#8BC6E9" transform="translate(147,94)"/>
<path d="M0 0 C-0.99 0.66 -1.98 1.32 -3 2 C-2.01 3.485 -2.01 3.485 -1 5 C-4.96 4.67 -8.92 4.34 -13 4 C-12.67 3.01 -12.34 2.02 -12 1 C-7.95858806 0.36605303 -4.0934693 -0.12404452 0 0 Z " fill="#A2CFEC" transform="translate(161,85)"/>
<path d="M0 0 C2.625 0.375 2.625 0.375 5 1 C2.53846154 5.8 2.53846154 5.8 -0.1875 6.8125 C-0.785625 6.874375 -1.38375 6.93625 -2 7 C-2.125 4.625 -2.125 4.625 -2 2 C-1.34 1.34 -0.68 0.68 0 0 Z " fill="#DDEDF8" transform="translate(150,69)"/>
<path d="M0 0 C1.46067199 0.45082469 2.91848032 0.91093537 4.375 1.375 C5.18710938 1.63023438 5.99921875 1.88546875 6.8359375 2.1484375 C9 3 9 3 11 5 C9.56260487 5.02712066 8.12506137 5.04645067 6.6875 5.0625 C5.48673828 5.07990234 5.48673828 5.07990234 4.26171875 5.09765625 C2 5 2 5 -1 4 C-0.67 2.68 -0.34 1.36 0 0 Z " fill="#ECF5FB" transform="translate(120,81)"/>
<path d="M0 0 C1.32 0.33 2.64 0.66 4 1 C3.01 5.62 2.02 10.24 1 15 C0.67 15 0.34 15 0 15 C0 10.05 0 5.1 0 0 Z " fill="#FBFDFE" transform="translate(142,67)"/>
<path d="M0 0 C2.93200474 2.85276137 5.64315404 5.65079784 8 9 C4.66666667 7.66666667 1.33333333 6.33333333 -2 5 C-1.125 1.125 -1.125 1.125 0 0 Z " fill="#F8FBFD" transform="translate(125,73)"/>
<path d="M0 0 C0.33 1.32 0.66 2.64 1 4 C-1.9154476 4 -4.34154481 3.59136731 -7.1875 3 C-8.08855469 2.814375 -8.98960937 2.62875 -9.91796875 2.4375 C-10.60503906 2.293125 -11.29210937 2.14875 -12 2 C-12 1.67 -12 1.34 -12 1 C-6.06 0.505 -6.06 0.505 0 0 Z " fill="#F8FBFD" transform="translate(163,89)"/>
<path d="M0 0 C0.33 0 0.66 0 1 0 C1.12117187 0.68707031 1.24234375 1.37414062 1.3671875 2.08203125 C1.53476563 2.98308594 1.70234375 3.88414063 1.875 4.8125 C2.03742188 5.70582031 2.19984375 6.59914063 2.3671875 7.51953125 C2.91188449 10.22727846 2.91188449 10.22727846 5 13 C3 12 1 11 -1 10 C-1.125 3.375 -1.125 3.375 0 0 Z " fill="#8DC6E8" transform="translate(144,73)"/>
<path d="M0 0 C0.66 0.33 1.32 0.66 2 1 C1.6875 2.875 1.6875 2.875 1 5 C-2 7 -2 7 -5 7 C-3.70700306 4.11562221 -2.34058637 2.12780579 0 0 Z " fill="#D8EBF7" transform="translate(158,74)"/>
<path d="M0 0 C0.99 0 1.98 0 3 0 C3.69699552 1.45381897 4.38233866 2.91322953 5.0625 4.375 C5.63677734 5.59316406 5.63677734 5.59316406 6.22265625 6.8359375 C6.47917969 7.55007812 6.73570312 8.26421875 7 9 C6.67 9.66 6.34 10.32 6 11 C4.9944239 9.54550599 3.99569565 8.08627557 3 6.625 C2.443125 5.81289062 1.88625 5.00078125 1.3125 4.1640625 C0 2 0 2 0 0 Z " fill="#F7FAFD" transform="translate(130,69)"/>
<path d="M0 0 C1.0725 0.2475 2.145 0.495 3.25 0.75 C0.97204978 3.02795022 -0.68787293 3.80219877 -3.75 4.75 C-6.0625 4.375 -6.0625 4.375 -7.75 3.75 C-5.15187156 0.32047046 -4.43092205 -0.2953948 0 0 Z " fill="#69B7E3" transform="translate(155.75,81.25)"/>
<path d="M0 0 C0 3 0 3 -2.5 5.6875 C-3.325 6.450625 -4.15 7.21375 -5 8 C-5 6.68 -5 5.36 -5 4 C-2.5 1.75 -2.5 1.75 0 0 Z " fill="#C0DFF2" transform="translate(133,100)"/>
<path d="M0 0 C1.24546405 2.49092811 0.7767578 3.41080733 0 6 C0.99 6.33 1.98 6.66 3 7 C3 7.66 3 8.32 3 9 C4.65 9 6.3 9 8 9 C8 9.33 8 9.66 8 10 C2.6 10.36 2.6 10.36 0.125 8.875 C-1.48515263 6.19141229 -1.26647742 4.06449028 -1 1 C-0.67 0.67 -0.34 0.34 0 0 Z " fill="#1997D7" transform="translate(136,85)"/>
<path d="M0 0 C0.99 0 1.98 0 3 0 C3.99 2.64 4.98 5.28 6 8 C5.01 8 4.02 8 3 8 C0 2.25 0 2.25 0 0 Z " fill="#1B97D7" transform="translate(160,75)"/>
<path d="M0 0 C0.33 0.66 0.66 1.32 1 2 C1.99 1.67 2.98 1.34 4 1 C3.25 3.4375 3.25 3.4375 2 6 C-0.125 6.8125 -0.125 6.8125 -2 7 C-1.125 2.25 -1.125 2.25 0 0 Z " fill="#6BB8E3" transform="translate(147,74)"/>
<path d="M0 0 C0.99 0.33 1.98 0.66 3 1 C2.67 1.99 2.34 2.98 2 4 C1.01 4 0.02 4 -1 4 C-2.68798827 5.43750191 -2.68798827 5.43750191 -4 7 C-4.66 6.67 -5.32 6.34 -6 6 C-4.02 4.02 -2.04 2.04 0 0 Z " fill="#6CB7E2" transform="translate(133,96)"/>
<path d="M0 0 C0.99 0.33 1.98 0.66 3 1 C4.1875 3.5625 4.1875 3.5625 5 6 C4.01 6.33 3.02 6.66 2 7 C1.34 4.69 0.68 2.38 0 0 Z " fill="#F8FBFD" transform="translate(148,103)"/>
</svg>
