<?xml version="1.0" encoding="UTF-8"?>
<svg version="1.1" xmlns="http://www.w3.org/2000/svg" width="302" height="147">
<path d="M0 0 C13.50754473 10.35715701 23.37627771 24.65701994 25.83203125 41.7734375 C27.10995955 58.42058347 24.63300716 74.06594137 13.7265625 87.4453125 C1.29180092 101.84485021 -13.77748957 110.47461044 -32.6875 113.15234375 C-53.71043458 114.41761296 -71.56404788 108.75643817 -87.38671875 94.765625 C-98.92331761 83.78085149 -105.46116215 70.09473574 -106.6875 54.15234375 C-106.84873099 36.29153245 -101.57453357 20.72019813 -89.27246094 7.50756836 C-65.8045082 -16.28351644 -27.24139645 -18.72846006 0 0 Z M-91.6875 22.15234375 C-94.06366208 26.90466792 -93.35401048 33.02576733 -92.6875 38.15234375 C-90.90668997 41.7302517 -88.44524557 44.29131182 -85.6875 47.15234375 C-84.2121687 48.93003976 -82.75373661 50.72189572 -81.3125 52.52734375 C-80.64476562 53.33945313 -79.97703125 54.1515625 -79.2890625 54.98828125 C-76.18151769 59.18725643 -76.5683161 63.34730026 -76.625 68.33984375 C-76.62951172 69.08943359 -76.63402344 69.83902344 -76.63867188 70.61132812 C-76.65043646 72.45836758 -76.66837135 74.30536588 -76.6875 76.15234375 C-74.11418426 75.80459838 -72.12389546 75.42258427 -69.90234375 74.046875 C-67.98449997 71.05602538 -68.25346913 68.34713353 -68.25 64.83984375 C-68.23066406 63.54433594 -68.21132812 62.24882813 -68.19140625 60.9140625 C-69.07596627 54.20672943 -73.43064404 50.22528614 -77.8125 45.33984375 C-82.92681123 39.35851211 -84.89587895 35.00189014 -84.55859375 27.15234375 C-84.34301622 24.46960109 -84.05618518 21.81783795 -83.6875 19.15234375 C-87.29527515 19.15234375 -88.75045544 20.14278695 -91.6875 22.15234375 Z M-76.6875 19.15234375 C-76.3575 24.43234375 -76.0275 29.71234375 -75.6875 35.15234375 C-73.3775 35.15234375 -71.0675 35.15234375 -68.6875 35.15234375 C-68.00634906 27.98674778 -68.00634906 27.98674778 -70.4375 21.52734375 C-72.84750397 19.90060098 -72.84750397 19.90060098 -76.6875 19.15234375 Z M-21.36767578 21.5546875 C-27.1395797 28.5416167 -23.78957364 48.03187549 -23.75 56.90234375 C-23.74497437 58.87109261 -23.74041335 60.83984271 -23.73632812 62.80859375 C-23.72540809 67.58987493 -23.70820218 72.37109533 -23.6875 77.15234375 C-20.7175 77.15234375 -17.7475 77.15234375 -14.6875 77.15234375 C-14.6875 58.01234375 -14.6875 38.87234375 -14.6875 19.15234375 C-17.36457887 19.15234375 -19.20586642 20.01473275 -21.36767578 21.5546875 Z M-1.6875 21.15234375 C-1.81433815 28.18136313 -1.90186744 35.21008715 -1.9621582 42.23999023 C-1.98729315 44.63105294 -2.02140633 47.02203889 -2.06469727 49.4128418 C-2.12539061 52.85094139 -2.15372072 56.28802471 -2.17578125 59.7265625 C-2.20158768 60.79444504 -2.2273941 61.86232758 -2.25398254 62.96257019 C-2.27272734 69.08981787 -2.27272734 69.08981787 0.65551758 74.36645508 C3.19390566 76.43126694 3.19390566 76.43126694 6.3125 76.15234375 C6.33749595 70.28483377 6.35549796 64.4173558 6.36743164 58.54980469 C6.37241446 56.55989033 6.37920314 54.56997954 6.38793945 52.58007812 C6.43579773 41.38687071 6.37375453 30.30568622 5.3125 19.15234375 C2.95962386 19.15234375 0.51876776 20.40127387 -1.6875 21.15234375 Z M-56.6875 37.15234375 C-59.86388949 41.91692799 -59.02077939 47.35150758 -59.00317383 52.92138672 C-59.00002127 55.01322895 -59.02345219 57.10364584 -59.04882812 59.1953125 C-59.0511021 60.53255031 -59.05180416 61.8697919 -59.05078125 63.20703125 C-59.05376221 64.41858887 -59.05674316 65.63014648 -59.05981445 66.87841797 C-58.65164749 70.46761078 -57.92651841 72.33620594 -55.6875 75.15234375 C-52.10753741 76.52134729 -52.10753741 76.52134729 -48.6875 77.15234375 C-49.0175 76.49234375 -49.3475 75.83234375 -49.6875 75.15234375 C-49.78667127 72.25878797 -49.82731511 69.38981076 -49.8203125 66.49609375 C-49.82126923 65.63802124 -49.82222595 64.77994873 -49.82321167 63.89587402 C-49.82389272 62.08015876 -49.82204367 60.26444107 -49.81787109 58.44873047 C-49.81252178 55.66368154 -49.81781861 52.87879389 -49.82421875 50.09375 C-49.82355796 48.33203089 -49.82227676 46.57031189 -49.8203125 44.80859375 C-49.82233673 43.97211304 -49.82436096 43.13563232 -49.82644653 42.27380371 C-49.80245917 36.38226209 -49.80245917 36.38226209 -48.6875 34.15234375 C-52.32077194 34.15234375 -53.73485927 35.10820786 -56.6875 37.15234375 Z M-42.6875 34.15234375 C-42.68226318 35.38388184 -42.67702637 36.61541992 -42.67163086 37.88427734 C-42.65356447 42.44270097 -42.64206196 47.00112142 -42.63256836 51.55957031 C-42.6275319 53.53451062 -42.62070249 55.50944718 -42.61206055 57.484375 C-42.59996492 60.3190198 -42.5942649 63.15361541 -42.58984375 65.98828125 C-42.58468246 66.87478363 -42.57952118 67.76128601 -42.57420349 68.6746521 C-42.57362829 74.92460034 -42.57362829 74.92460034 -43.6875 77.15234375 C-38.45769618 75.74154325 -38.45769618 75.74154325 -34.6875 72.15234375 C-34.37711646 69.61244996 -34.24315576 67.32199739 -34.25390625 64.78125 C-34.2486644 64.06251205 -34.24342255 63.34377411 -34.23802185 62.60325623 C-34.23160394 61.08439423 -34.23293575 59.56548252 -34.24145508 58.04663086 C-34.24995858 55.72614689 -34.221217 53.40813089 -34.18945312 51.08789062 C-34.18784076 49.61067782 -34.18841931 48.13346067 -34.19140625 46.65625 C-34.18017227 45.96447159 -34.16893829 45.27269318 -34.15736389 44.55995178 C-34.20508398 41.24989891 -34.47811337 39.43526684 -36.46850586 36.74584961 C-38.66443327 35.16890845 -40.09649454 34.70972121 -42.6875 34.15234375 Z M-92.6875 60.15234375 C-93.41756156 67.69891157 -93.41756156 67.69891157 -90.375 74.33984375 C-87.81322654 76.43191458 -87.81322654 76.43191458 -84.6875 76.15234375 C-84.6875 70.87234375 -84.6875 65.59234375 -84.6875 60.15234375 C-87.3275 60.15234375 -89.9675 60.15234375 -92.6875 60.15234375 Z " fill="#CEDD87" transform="translate(146.6875,31.84765625)"/>
<path d="M0 0 C4.78832435 2.89765551 8.09878471 7.01721905 10.875 11.8125 C12.4051834 18.23927029 12.10641558 23.77171381 8.8359375 29.58203125 C5.39070321 34.36707887 1.12141002 37.65034653 -4.5 39.4375 C-12.3438829 40.24344257 -20.09184467 40.53421889 -26.5 35.4375 C-31.55098767 30.65831435 -34.48987585 26.16555086 -34.875 19.125 C-34.71089388 13.31371281 -32.82313967 8.92028671 -28.8515625 4.67578125 C-21.07137708 -2.33997547 -9.82200755 -4.42655273 0 0 Z " fill="#ADD24A" transform="translate(44.5,10.5625)"/>
<path d="M0 0 C1.3488873 0.00025096 2.69778106 0.00580724 4.04663086 0.01586914 C5.99194702 0.01961548 5.99194702 0.01961548 7.9765625 0.0234375 C9.6380835 0.0325415 11.29960449 0.04164551 13.01147461 0.05102539 C18.27084961 0.07165039 23.53022461 0.09227539 28.94897461 0.11352539 C28.94897461 13.97352539 28.94897461 27.83352539 28.94897461 42.11352539 C29.60897461 42.11352539 30.26897461 42.11352539 30.94897461 42.11352539 C30.94897461 43.10352539 30.94897461 44.09352539 30.94897461 45.11352539 C28.89114683 45.41783082 26.82716516 45.68071031 24.76147461 45.92602539 C23.61291992 46.0768457 22.46436523 46.22766602 21.28100586 46.38305664 C17.94897461 46.11352539 17.94897461 46.11352539 15.27124023 44.13305664 C12.18023922 40.11397542 12.29857163 37.45376279 12.46069336 32.53149414 C12.4677681 31.71731522 12.47484283 30.90313629 12.48213196 30.06428528 C12.51001863 27.47557896 12.57274145 24.88907266 12.63647461 22.30102539 C12.66156511 20.54129111 12.68437697 18.78152276 12.70483398 17.02172852 C12.75982589 12.71815243 12.84605469 8.41621129 12.94897461 4.11352539 C11.95897461 4.11352539 10.96897461 4.11352539 9.94897461 4.11352539 C10.44397461 30.34852539 10.44397461 30.34852539 10.94897461 57.11352539 C7.64897461 57.11352539 4.34897461 57.11352539 0.94897461 57.11352539 C0.94897461 53.48352539 0.94897461 49.85352539 0.94897461 46.11352539 C-0.70102539 45.78352539 -2.35102539 45.45352539 -4.05102539 45.11352539 C-7.40330184 41.2164239 -7.49207958 37.29151278 -7.44946289 32.36352539 C-7.45233307 31.62779297 -7.45520325 30.89206055 -7.4581604 30.1340332 C-7.46019465 28.58422065 -7.45470954 27.03438205 -7.44213867 25.48461914 C-7.42607449 23.12075047 -7.44200759 20.75859128 -7.46118164 18.39477539 C-7.45919909 16.88435497 -7.45535518 15.37393562 -7.44946289 13.86352539 C-7.45553558 13.16130859 -7.46160828 12.4590918 -7.46786499 11.7355957 C-7.38917966 6.2090199 -6.23456105 0.23198135 0 0 Z M0.94897461 4.11352539 C0.94897461 16.65352539 0.94897461 29.19352539 0.94897461 42.11352539 C1.27897461 42.11352539 1.60897461 42.11352539 1.94897461 42.11352539 C1.94897461 29.57352539 1.94897461 17.03352539 1.94897461 4.11352539 C1.61897461 4.11352539 1.28897461 4.11352539 0.94897461 4.11352539 Z M19.94897461 4.11352539 C19.94897461 16.32352539 19.94897461 28.53352539 19.94897461 41.11352539 C20.60897461 41.44352539 21.26897461 41.77352539 21.94897461 42.11352539 C21.94897461 29.57352539 21.94897461 17.03352539 21.94897461 4.11352539 C21.28897461 4.11352539 20.62897461 4.11352539 19.94897461 4.11352539 Z " fill="#D3E69E" transform="translate(251.051025390625,63.886474609375)"/>
<path d="M0 0 C1.49249268 0.01571045 1.49249268 0.01571045 3.01513672 0.03173828 C3.98467285 0.0367334 4.95420898 0.04172852 5.953125 0.046875 C7.18788574 0.06508301 8.42264648 0.08329102 9.69482422 0.10205078 C15.57294922 0.16392578 15.57294922 0.16392578 21.56982422 0.22705078 C21.56982422 14.08705078 21.56982422 27.94705078 21.56982422 42.22705078 C22.22982422 42.22705078 22.88982422 42.22705078 23.56982422 42.22705078 C23.56982422 43.21705078 23.56982422 44.20705078 23.56982422 45.22705078 C19.93982422 45.22705078 16.30982422 45.22705078 12.56982422 45.22705078 C12.56982422 44.23705078 12.56982422 43.24705078 12.56982422 42.22705078 C13.22982422 42.22705078 13.88982422 42.22705078 14.56982422 42.22705078 C14.56982422 29.68705078 14.56982422 17.14705078 14.56982422 4.22705078 C13.57982422 4.22705078 12.58982422 4.22705078 11.56982422 4.22705078 C11.56395798 4.8047673 11.55809174 5.38248383 11.55204773 5.97770691 C11.48806067 11.99644541 11.40362728 18.01465183 11.30737305 24.03295898 C11.27414071 26.27833028 11.24610353 28.52378478 11.22338867 30.76928711 C11.1898122 33.99905821 11.13749349 37.22806805 11.08154297 40.45751953 C11.07515305 41.45978073 11.06876312 42.46204193 11.06217957 43.49467468 C10.87677663 52.30482784 10.87677663 52.30482784 7.56982422 56.22705078 C4.68120712 57.67135933 2.77334721 57.60393584 -0.43017578 57.22705078 C-3.760866 54.71052928 -5.18581484 53.05787797 -6.36767578 49.03955078 C-6.38830078 48.11142578 -6.40892578 47.18330078 -6.43017578 46.22705078 C-5.77017578 45.56705078 -5.11017578 44.90705078 -4.43017578 44.22705078 C-4.75469727 43.38537354 -5.07921875 42.54369629 -5.41357422 41.67651367 C-6.50996768 37.95630637 -6.68873053 34.90787195 -6.69580078 31.03564453 C-6.69771423 30.36791519 -6.69962769 29.70018585 -6.70159912 29.01222229 C-6.70295218 27.60962545 -6.69931757 26.2070157 -6.69091797 24.80444336 C-6.68018823 22.66703019 -6.69085129 20.53045408 -6.70361328 18.39306641 C-6.70229186 17.02392394 -6.69972983 15.654782 -6.69580078 14.28564453 C-6.69354492 13.05128662 -6.69128906 11.81692871 -6.68896484 10.54516602 C-6.32330383 5.85677083 -5.45157338 0.50933928 0 0 Z M1.56982422 4.22705078 C1.56982422 16.43705078 1.56982422 28.64705078 1.56982422 41.22705078 C1.89982422 41.22705078 2.22982422 41.22705078 2.56982422 41.22705078 C2.56982422 29.01705078 2.56982422 16.80705078 2.56982422 4.22705078 C2.23982422 4.22705078 1.90982422 4.22705078 1.56982422 4.22705078 Z M0.56982422 45.22705078 C0.89982422 47.86705078 1.22982422 50.50705078 1.56982422 53.22705078 C1.89982422 53.22705078 2.22982422 53.22705078 2.56982422 53.22705078 C2.89982422 50.58705078 3.22982422 47.94705078 3.56982422 45.22705078 C2.57982422 45.22705078 1.58982422 45.22705078 0.56982422 45.22705078 Z " fill="#D2E69D" transform="translate(219.43017578125,63.77294921875)"/>
<path d="M0 0 C3.1359157 1.77984405 3.84102736 2.52308207 5 6 C5.13225339 8.52722545 5.21206775 11.02614764 5.23828125 13.5546875 C5.25038887 14.66253098 5.25038887 14.66253098 5.26274109 15.79275513 C5.27655873 17.35448881 5.28729125 18.91625239 5.29516602 20.47802734 C5.30669676 22.07251858 5.32716613 23.66697088 5.35668945 25.26123047 C5.39940091 27.56764905 5.41553795 29.87292237 5.42578125 32.1796875 C5.44328934 32.88817841 5.46079742 33.59666931 5.47883606 34.32662964 C5.46324629 37.9003629 5.07822819 39.87579242 3.15698242 42.92626953 C0.39596626 45.58072016 -1.18884662 46 -5 46 C-8.11493175 44.72570974 -9.57869373 43.8223495 -11.12182617 40.81030273 C-12.71561477 35.70991337 -12.33268823 30.43783128 -12.31567383 25.13500977 C-12.31251438 23.07189046 -12.33599935 21.01020797 -12.36132812 18.94726562 C-12.36197266 17.63564453 -12.36261719 16.32402344 -12.36328125 14.97265625 C-12.36626221 13.77906494 -12.36924316 12.58547363 -12.37231445 11.35571289 C-11.95487688 7.59330013 -10.98592847 5.20794869 -9 2 C-5.51131349 -0.32579101 -4.10281481 -0.41865457 0 0 Z M-4 4 C-4 16.54 -4 29.08 -4 42 C-3.01 41.505 -3.01 41.505 -2 41 C-2 29.12 -2 17.24 -2 5 C-2.66 4.67 -3.32 4.34 -4 4 Z " fill="#C6DF81" transform="translate(206,64)"/>
<path d="M0 0 C3.3 0 6.6 0 10 0 C9.67 18.15 9.34 36.3 9 55 C9.33 50.05 9.66 45.1 10 40 C12.31 40 14.62 40 17 40 C17 46.27 17 52.54 17 59 C11.39 59 5.78 59 0 59 C0 39.53 0 20.06 0 0 Z " fill="#BFDC72" transform="translate(175,50)"/>
<path d="M0 0 C5.61 0 11.22 0 17 0 C17 13.86 17 27.72 17 42 C17.66 42 18.32 42 19 42 C19 42.99 19 43.98 19 45 C16.9190156 45.24959784 14.83499188 45.47394907 12.75 45.6875 C11.58984375 45.81511719 10.4296875 45.94273438 9.234375 46.07421875 C6 46 6 46 3.82226562 45.06054688 C0.88673288 41.74116097 1.50663808 38.23401938 1.609375 33.95703125 C1.61503479 33.0734343 1.62069458 32.18983734 1.62652588 31.27946472 C1.64892133 28.45659257 1.69912273 25.63498862 1.75 22.8125 C1.77006094 20.89910687 1.78831242 18.98569385 1.8046875 17.07226562 C1.84879643 12.38102158 1.91784515 7.69072582 2 3 C1.34 3 0.68 3 0 3 C0 2.01 0 1.02 0 0 Z M8 4 C8 16.21 8 28.42 8 41 C8.66 41.33 9.32 41.66 10 42 C10 29.46 10 16.92 10 4 C9.34 4 8.68 4 8 4 Z " fill="#C4DE7C" transform="translate(263,64)"/>
<path d="M0 0 C2.93640187 2.0661981 4.76347207 3.64962743 5.40039062 7.28588867 C5.49218604 9.97778932 5.4360916 12.62200598 5.3125 15.3125 C5.28994141 16.24384766 5.26738281 17.17519531 5.24414062 18.13476562 C5.18544561 20.42387127 5.09577065 22.71214561 5 25 C2.03 25 -0.94 25 -4 25 C-3.67 30.28 -3.34 35.56 -3 41 C-2.67 37.37 -2.34 33.74 -2 30 C0.31 30 2.62 30 5 30 C5.6176587 38.8359509 5.6176587 38.8359509 3.375 43.0625 C0.44285843 45.45451022 -1.22017572 46 -5 46 C-7.75 44.9375 -7.75 44.9375 -10 43 C-12.78019208 36.30575731 -12.33010424 29.63323624 -12.3125 22.5 C-12.32861328 21.19417969 -12.34472656 19.88835937 -12.36132812 18.54296875 C-12.36197266 17.28097656 -12.36261719 16.01898438 -12.36328125 14.71875 C-12.36626221 13.57341797 -12.36924316 12.42808594 -12.37231445 11.24804688 C-11.94795461 7.54595943 -10.94695922 5.16355891 -9 2 C-5.48175489 -0.34549674 -4.14224306 -0.57991403 0 0 Z M-4 4 C-4 9.61 -4 15.22 -4 21 C-3.34 21 -2.68 21 -2 21 C-2 15.72 -2 10.44 -2 5 C-2.66 4.67 -3.32 4.34 -4 4 Z " fill="#C6DF81" transform="translate(295,64)"/>
<path d="M0 0 C2.28718704 1.93805257 4.44064327 3.77787097 6.3828125 6.0625 C6.3828125 7.0525 6.3828125 8.0425 6.3828125 9.0625 C0.31805503 9.83672436 -2.5639357 8.18893727 -7.40625 4.5703125 C-13.96966096 0.09420538 -20.91774245 0.24894208 -28.6171875 1.0625 C-35.221094 3.09246071 -39.80429976 6.34316838 -43.6171875 12.0625 C-46.06866184 17.04205725 -45.6976461 21.37036155 -45.4921875 26.80859375 C-45.62421892 30.2455366 -46.38379978 32.86821851 -47.6171875 36.0625 C-51.53331282 32.53798721 -53.32027766 29.53444703 -53.953125 24.265625 C-54.07040917 15.39894169 -52.54349793 9.00672319 -46.5546875 2.3125 C-34.0301149 -9.29432375 -13.61631127 -10.08013491 0 0 Z " fill="#E1ECB1" transform="translate(54.6171875,6.9375)"/>
<path d="M0 0 C1.09570312 0.00902344 2.19140625 0.01804687 3.3203125 0.02734375 C4.16335937 0.03894531 5.00640625 0.05054687 5.875 0.0625 C4.885 0.5575 4.885 0.5575 3.875 1.0625 C4.205 1.7225 4.535 2.3825 4.875 3.0625 C4.96199648 5.96780826 4.99051415 8.84885351 4.97265625 11.75390625 C4.9712413 12.61435043 4.96982635 13.47479462 4.96836853 14.36131287 C4.96276204 17.1159103 4.95021157 19.87042706 4.9375 22.625 C4.93248556 24.48632695 4.92792256 26.34765517 4.92382812 28.20898438 C4.9126972 32.8268527 4.89501196 37.44466218 4.875 42.0625 C4.875 42.3925 4.875 42.7225 4.875 43.0625 C5.865 43.3925 6.855 43.7225 7.875 44.0625 C5.27320337 45.36339831 3.2780812 45.23090078 0.375 45.25 C-0.6046875 45.26417969 -1.584375 45.27835938 -2.59375 45.29296875 C-5.125 45.0625 -5.125 45.0625 -7.125 43.0625 C-5.805 43.0625 -4.485 43.0625 -3.125 43.0625 C-3.455 42.7325 -3.785 42.4025 -4.125 42.0625 C-4.20127888 39.18983745 -4.21571387 36.34094968 -4.1875 33.46875 C-4.18371338 32.60689087 -4.17992676 31.74503174 -4.17602539 30.85705566 C-4.15959577 27.15318151 -4.131457 23.44941547 -4.10449219 19.74560547 C-4.08650009 17.04915875 -4.07434712 14.35272955 -4.0625 11.65625 C-4.05420166 10.81147095 -4.04590332 9.96669189 -4.03735352 9.09631348 C-4.02880784 7.08484829 -4.07160715 5.07327458 -4.125 3.0625 C-5.2740712 1.7643576 -5.2740712 1.7643576 -8.125 1.0625 C-5.36047967 -0.31976016 -3.0788637 -0.03275387 0 0 Z " fill="#D0DF8C" transform="translate(100.125,64.9375)"/>
<path d="M0 0 C2.31 0 4.62 0 7 0 C7 17.82 7 35.64 7 54 C4.36 54 1.72 54 -1 54 C-0.67 36.18 -0.34 18.36 0 0 Z " fill="#ADD24A" transform="translate(254,66)"/>
<path d="M0 0 C2.31 0 4.62 0 7 0 C6.93296629 6.74474223 6.84314619 13.48890634 6.73754883 20.2331543 C6.70431366 22.52702967 6.67627736 24.82098654 6.65356445 27.11499023 C6.61999326 30.41425273 6.56767465 33.7127693 6.51171875 37.01171875 C6.50213387 38.54792122 6.50213387 38.54792122 6.49235535 40.11515808 C6.30136225 49.38412957 6.30136225 49.38412957 3 53 C2.01 53 1.02 53 0 53 C0 49.37 0 45.74 0 42 C-0.66 42 -1.32 42 -2 42 C-2 41.34 -2 40.68 -2 40 C-1.34 40 -0.68 40 0 40 C0 26.8 0 13.6 0 0 Z " fill="#ADD249" transform="translate(223,66)"/>
<path d="M0 0 C0.99 0.33 1.98 0.66 3 1 C2.98428955 2.17095215 2.9685791 3.3419043 2.95239258 4.54833984 C2.89818804 8.88306834 2.86368463 13.21776676 2.83520508 17.55273438 C2.82009675 19.43071526 2.79960906 21.30866076 2.77368164 23.18652344 C2.73738754 25.88225019 2.72029455 28.57751146 2.70703125 31.2734375 C2.69154739 32.11619232 2.67606354 32.95894714 2.66011047 33.82723999 C2.62410864 36.43722275 2.62410864 36.43722275 3 40 C3.99 40.66 4.98 41.32 6 42 C3.36 42 0.72 42 -2 42 C-4.6305673 37.44859767 -5.36870147 34.19454425 -5.328125 28.95703125 C-5.32625183 28.30675461 -5.32437866 27.65647797 -5.32244873 26.98649597 C-5.31576883 25.62253633 -5.30193596 24.25859452 -5.28125 22.89477539 C-5.24993133 20.80792421 -5.24025612 18.72182925 -5.234375 16.63476562 C-5.15472274 6.46416823 -5.15472274 6.46416823 -4 3 C-2.125 1.25 -2.125 1.25 0 0 Z " fill="#B7D761" transform="translate(199,66)"/>
<path d="M0 0 C0.33 0 0.66 0 1 0 C1 3.96 1 7.92 1 12 C2.32 12 3.64 12 5 12 C5 12.99 5 13.98 5 15 C4.01 15 3.02 15 2 15 C2 27.87 2 40.74 2 54 C2.66 54 3.32 54 4 54 C4 54.99 4 55.98 4 57 C-0.95 57 -5.9 57 -11 57 C-11 56.01 -11 55.02 -11 54 C-10.34 54 -9.68 54 -9 54 C-9 40.8 -9 27.6 -9 14 C-9.66 14 -10.32 14 -11 14 C-11 13.34 -11 12.68 -11 12 C-10.34 12 -9.68 12 -9 12 C-9 9.03 -9 6.06 -9 3 C-8.34 2.67 -7.68 2.34 -7 2 C-7 19.49 -7 36.98 -7 55 C-4.69 55 -2.38 55 0 55 C0 36.85 0 18.7 0 0 Z " fill="#EBF2CF" transform="translate(131,53)"/>
<path d="M0 0 C2.31 0 4.62 0 7 0 C7.33 14.19 7.66 28.38 8 43 C5.36 43 2.72 43 0 43 C0.99 42.505 0.99 42.505 2 42 C2 28.8 2 15.6 2 2 C1.34 2 0.68 2 0 2 C0 1.34 0 0.68 0 0 Z " fill="#A8CF3E" transform="translate(233,65)"/>
<path d="M0 0 C2.31 0 4.62 0 7 0 C7 13.86 7 27.72 7 42 C7.66 42.33 8.32 42.66 9 43 C6.69 43 4.38 43 2 43 C2 29.47 2 15.94 2 2 C1.34 2 0.68 2 0 2 C0 1.34 0 0.68 0 0 Z " fill="#A8CF3F" transform="translate(272,65)"/>
<path d="M0 0 C1.09054688 0.02320312 2.18109375 0.04640625 3.3046875 0.0703125 C4.40039062 0.08835937 5.49609375 0.10640625 6.625 0.125 C7.46804687 0.14820312 8.31109375 0.17140625 9.1796875 0.1953125 C8.1896875 0.6903125 8.1896875 0.6903125 7.1796875 1.1953125 C7.5096875 1.8553125 7.8396875 2.5153125 8.1796875 3.1953125 C8.26668398 6.10062076 8.29520165 8.98166601 8.27734375 11.88671875 C8.2759288 12.74716293 8.27451385 13.60760712 8.27305603 14.49412537 C8.26744954 17.2487228 8.25489907 20.00323956 8.2421875 22.7578125 C8.23717306 24.61913945 8.23261006 26.48046767 8.22851562 28.34179688 C8.2173847 32.9596652 8.19969946 37.57747468 8.1796875 42.1953125 C8.1796875 42.5253125 8.1796875 42.8553125 8.1796875 43.1953125 C9.1696875 43.5253125 10.1596875 43.8553125 11.1796875 44.1953125 C8.57789087 45.49621081 6.5827687 45.36371328 3.6796875 45.3828125 C2.7 45.39699219 1.7203125 45.41117188 0.7109375 45.42578125 C-1.8203125 45.1953125 -1.8203125 45.1953125 -3.8203125 43.1953125 C1.1296875 42.7003125 1.1296875 42.7003125 6.1796875 42.1953125 C6.1796875 28.9953125 6.1796875 15.7953125 6.1796875 2.1953125 C2.5496875 2.1953125 -1.0803125 2.1953125 -4.8203125 2.1953125 C-2.8203125 0.1953125 -2.8203125 0.1953125 0 0 Z " fill="#E9F0CB" transform="translate(96.8203125,64.8046875)"/>
<path d="M0 0 C1.98 0 3.96 0 6 0 C6 0.99 6 1.98 6 3 C4.35 3 2.7 3 1 3 C1.33 15.87 1.66 28.74 2 42 C3.65 42.33 5.3 42.66 7 43 C7 43.66 7 44.32 7 45 C0.375 45.25 0.375 45.25 -3 43 C-2.01 43 -1.02 43 0 43 C-0.33 42.34 -0.66 41.68 -1 41 C-1.09917127 38.10644422 -1.13981511 35.23746701 -1.1328125 32.34375 C-1.13376923 31.48567749 -1.13472595 30.62760498 -1.13571167 29.74353027 C-1.13639272 27.92781501 -1.13454367 26.11209732 -1.13037109 24.29638672 C-1.12502178 21.51133779 -1.13031861 18.72645014 -1.13671875 15.94140625 C-1.13605796 14.17968714 -1.13477676 12.41796814 -1.1328125 10.65625 C-1.13483673 9.81976929 -1.13686096 8.98328857 -1.13894653 8.12145996 C-1.11495917 2.22991834 -1.11495917 2.22991834 0 0 Z " fill="#E8EFC7" transform="translate(153,65)"/>
<path d="M0 0 C0.33 0 0.66 0 1 0 C1 3.96 1 7.92 1 12 C2.32 12 3.64 12 5 12 C5 12.99 5 13.98 5 15 C4.01 15 3.02 15 2 15 C2 27.87 2 40.74 2 54 C2.66 54.33 3.32 54.66 4 55 C2.68 55 1.36 55 0 55 C0 36.85 0 18.7 0 0 Z " fill="#E7EEC4" transform="translate(131,53)"/>
<path d="M0 0 C-0.33 0.66 -0.66 1.32 -1 2 C-0.67 2 -0.34 2 0 2 C0 4.97 0 7.94 0 11 C1.65 10.34 3.3 9.68 5 9 C4 12 4 12 2 13 C-2.03366277 13.5378217 -3.51619826 13.36553909 -6.8125 10.875 C-9.17995652 7.76348571 -9.73114094 5.85364648 -10 2 C-6.5980513 -0.09350689 -3.94727588 -0.17942163 0 0 Z " fill="#C4DE7D" transform="translate(223,108)"/>
<path d="M0 0 C2.31 0 4.62 0 7 0 C7.6176587 8.8359509 7.6176587 8.8359509 5.375 13.0625 C2.5115866 15.39844251 0.67627233 15.92008104 -3 16 C-3.66 15.34 -4.32 14.68 -5 14 C-4.01 13.34 -3.02 12.68 -2 12 C-0.26043342 10.26043342 -0.62809614 7.8063378 -0.4375 5.4375 C-0.35371094 4.42558594 -0.26992188 3.41367188 -0.18359375 2.37109375 C-0.12300781 1.58863281 -0.06242187 0.80617188 0 0 Z " fill="#C5DF7F" transform="translate(293,94)"/>
<path d="M0 0 C2.375 -0.125 2.375 -0.125 5 0 C7 2 7 2 7.22705078 3.97119141 C7.21134033 5.1494751 7.21134033 5.1494751 7.1953125 6.3515625 C7.18564453 7.62773438 7.18564453 7.62773438 7.17578125 8.9296875 C7.15902344 9.81914063 7.14226562 10.70859375 7.125 11.625 C7.11597656 12.5221875 7.10695313 13.419375 7.09765625 14.34375 C7.0740497 16.56276586 7.0411231 18.78125077 7 21 C4.36 21 1.72 21 -1 21 C0.32 20.67 1.64 20.34 3 20 C2.88641524 17.04081802 2.75966914 14.08323217 2.625 11.125 C2.57859375 9.86236328 2.57859375 9.86236328 2.53125 8.57421875 C2.49257813 7.76855469 2.45390625 6.96289062 2.4140625 6.1328125 C2.3826416 5.38918457 2.3512207 4.64555664 2.31884766 3.87939453 C2.14580449 1.75989026 2.14580449 1.75989026 0 0 Z " fill="#A7CE3C" transform="translate(291,66)"/>
<path d="M0 0 C2.31 0 4.62 0 7 0 C7.02687279 1.81242052 7.04633715 3.62495233 7.0625 5.4375 C7.07410156 6.44683594 7.08570313 7.45617188 7.09765625 8.49609375 C7 11 7 11 6 12 C4.02 12 2.04 12 0 12 C0 8.04 0 4.08 0 0 Z " fill="#C1DD77" transform="translate(234,50)"/>
<path d="M0 0 C0.99 0 1.98 0 3 0 C3 2.97 3 5.94 3 9 C4.65 8.34 6.3 7.68 8 7 C7 10 7 10 5 11 C-0.42307692 11.46153846 -0.42307692 11.46153846 -2.875 9.5 C-3.24625 9.005 -3.6175 8.51 -4 8 C-2.68 8.33 -1.36 8.66 0 9 C0 6.03 0 3.06 0 0 Z " fill="#E5F0C6" transform="translate(220,110)"/>
<path d="M0 0 C1.19882813 0.15275391 1.19882813 0.15275391 2.421875 0.30859375 C3.02515625 0.39238281 3.6284375 0.47617187 4.25 0.5625 C3.26 1.0575 3.26 1.0575 2.25 1.5625 C1.92 2.2225 1.59 2.8825 1.25 3.5625 C-2.38 3.2325 -6.01 2.9025 -9.75 2.5625 C-8.75 0.5625 -8.75 0.5625 -6.984375 -0.08984375 C-4.5100683 -0.47483203 -2.47863829 -0.32805507 0 0 Z " fill="#F2F6E0" transform="translate(67.75,49.4375)"/>
<path d="M0 0 C2.31 0.66 4.62 1.32 7 2 C7 2.66 7 3.32 7 4 C0.375 4.25 0.375 4.25 -3 2 C-2.01 2 -1.02 2 0 2 C0 1.34 0 0.68 0 0 Z " fill="#F4F7E5" transform="translate(153,106)"/>
<path d="" fill="#FAFCF4" transform="translate(0,0)"/>
</svg>
