<?xml version="1.0" encoding="UTF-8"?>
<svg version="1.1" xmlns="http://www.w3.org/2000/svg" width="1024" height="1024">
<path d="M0 0 C0.83023682 0.00499512 1.66047363 0.00999023 2.51586914 0.01513672 C3.53028076 0.03334473 4.54469238 0.05155273 5.58984375 0.0703125 C8.86921875 0.1115625 12.14859375 0.1528125 15.52734375 0.1953125 C16.02234375 12.5703125 16.02234375 12.5703125 16.52734375 25.1953125 C23.24385788 21.17245774 23.24385788 21.17245774 29.93359375 17.10546875 C50.33830538 4.91932153 72.72237191 -1.63889948 96.625 2.8125 C99.78529313 3.69753872 102.5716259 4.7718904 105.52734375 6.1953125 C106.66816406 6.74316406 107.80898437 7.29101562 108.984375 7.85546875 C125.97304464 16.56654284 140.37710643 31.94370893 146.52734375 50.1953125 C155.53442925 80.12665435 158.20159226 116.1944797 143.671875 145.046875 C139.96642759 151.93802585 135.55733312 158.2178135 130.52734375 164.1953125 C130.05554688 164.82308594 129.58375 165.45085937 129.09765625 166.09765625 C113.31674398 186.08953734 88.26019053 194.58117095 63.93359375 197.6484375 C56.85852312 198.28856294 49.75202086 198.28378526 42.65234375 198.3203125 C41.36094482 198.32756348 41.36094482 198.32756348 40.04345703 198.33496094 C31.8118229 198.31359196 23.79246511 197.71188258 15.52734375 197.1953125 C15.52734375 217.6553125 15.52734375 238.1153125 15.52734375 259.1953125 C18.49734375 259.5253125 21.46734375 259.8553125 24.52734375 260.1953125 C26.50429066 260.556564 28.47593853 260.94957077 30.4375 261.38671875 C31.44619141 261.60908203 32.45488281 261.83144531 33.49414062 262.06054688 C34.51572266 262.29064453 35.53730469 262.52074219 36.58984375 262.7578125 C37.64623047 262.99177734 38.70261719 263.22574219 39.79101562 263.46679688 C42.37072643 264.03876895 44.94916998 264.61645161 47.52734375 265.1953125 C47.52734375 271.4653125 47.52734375 277.7353125 47.52734375 284.1953125 C6.60734375 284.1953125 -34.31265625 284.1953125 -76.47265625 284.1953125 C-76.47265625 278.2553125 -76.47265625 272.3153125 -76.47265625 266.1953125 C-67.46122242 262.81602481 -67.46122242 262.81602481 -64.296875 262.02734375 C-63.61431641 261.85654297 -62.93175781 261.68574219 -62.22851562 261.50976562 C-61.20467773 261.26129883 -61.20467773 261.26129883 -60.16015625 261.0078125 C-59.45826172 260.83056641 -58.75636719 260.65332031 -58.03320312 260.47070312 C-55.10365134 259.74739148 -52.50203767 259.1953125 -49.47265625 259.1953125 C-49.47265625 187.9153125 -49.47265625 116.6353125 -49.47265625 43.1953125 C-59.70265625 43.1953125 -69.93265625 43.1953125 -80.47265625 43.1953125 C-80.47265625 36.5953125 -80.47265625 29.9953125 -80.47265625 23.1953125 C-71.69570255 19.90395486 -71.69570255 19.90395486 -67.421875 18.98046875 C-56.12957307 16.25718777 -45.16094116 12.24868289 -34.14575195 8.59008789 C-31.09571762 7.5786664 -28.04400606 6.57242876 -24.9921875 5.56640625 C-24.07008987 5.25803329 -23.14799225 4.94966034 -22.19795227 4.63194275 C-14.94618019 2.24241076 -7.7066595 -0.09693911 0 0 Z M15.52734375 44.1953125 C15.52734375 87.4253125 15.52734375 130.6553125 15.52734375 175.1953125 C33.93470256 175.1953125 53.97026363 173.37510941 68.08984375 159.8203125 C82.92164376 143.05392988 87.52473615 119.49357863 86.69335938 97.76367188 C85.72478852 82.77931093 81.06386796 66.03382761 71.17578125 54.4375 C57.3642896 42.60550552 32.76494908 35.57650983 15.52734375 44.1953125 Z " fill="#FFFFFF" transform="translate(127.47265625,454.8046875)"/>
<path d="M0 0 C6.82932539 5.21621762 11.93085931 13.60370422 14.08203125 21.8515625 C15.16142635 34.21440171 14.50658864 47.15915249 6.35546875 57.1875 C4.89117726 59.10096066 3.86714689 61.08289706 2.76953125 63.2265625 C0.47230907 67.46539972 -2.35669125 70.69663152 -5.62109375 74.21875 C-8.3799573 77.38112081 -10.83553032 80.7028585 -13.29296875 84.1015625 C-18.99318551 91.98393229 -24.82261947 99.75637208 -30.91796875 107.33984375 C-33.16184929 110.15784216 -35.32440884 113.02837148 -37.48046875 115.9140625 C-38.24488281 116.93628906 -39.00929688 117.95851563 -39.796875 119.01171875 C-41.08021232 120.72992544 -42.34418023 122.46317094 -43.5703125 124.22265625 C-44.01503906 124.76019531 -44.45976563 125.29773438 -44.91796875 125.8515625 C-45.57796875 125.8515625 -46.23796875 125.8515625 -46.91796875 125.8515625 C-47.32208984 126.70427734 -47.32208984 126.70427734 -47.734375 127.57421875 C-51.68776147 135.18089964 -57.36922363 141.65327505 -62.93920898 148.10327148 C-65.4862279 151.07763962 -67.81871306 154.03534699 -69.91796875 157.3515625 C-72.77344173 161.85284123 -76.19790742 165.80579452 -79.66870117 169.83276367 C-84.36516878 175.30811869 -88.64531835 181.03921826 -92.91796875 186.8515625 C-94.89796875 189.4915625 -96.87796875 192.1315625 -98.91796875 194.8515625 C-117.06796875 194.8515625 -135.21796875 194.8515625 -153.91796875 194.8515625 C-154.24796875 157.2315625 -154.57796875 119.6115625 -154.91796875 80.8515625 C-159.20796875 88.1115625 -163.49796875 95.3715625 -167.91796875 102.8515625 C-172.91796875 110.1640625 -172.91796875 110.1640625 -175.08203125 113.19921875 C-177.09667187 116.10973148 -178.75789283 119.09293507 -180.4140625 122.21484375 C-183.02020592 126.78405623 -185.95566008 131.14509868 -188.83056641 135.54833984 C-191.83581957 140.1584287 -194.73916264 144.80858294 -197.5390625 149.546875 C-200.87758554 155.12684269 -204.44004457 160.571577 -207.9765625 166.02734375 C-214.13400886 175.54339722 -220.0002887 185.16808606 -225.91796875 194.8515625 C-241.75796875 194.8515625 -257.59796875 194.8515625 -273.91796875 194.8515625 C-273.91796875 143.7015625 -273.91796875 92.5515625 -273.91796875 39.8515625 C-280.51796875 39.5215625 -287.11796875 39.1915625 -293.91796875 38.8515625 C-297.35866262 38.53897957 -300.74823415 38.21925668 -304.16796875 37.7890625 C-306.72546875 37.4796875 -309.28296875 37.1703125 -311.91796875 36.8515625 C-311.91796875 30.2515625 -311.91796875 23.6515625 -311.91796875 16.8515625 C-308.89511719 16.15675781 -305.87226563 15.46195312 -302.7578125 14.74609375 C-295.19451488 12.97302739 -287.73333358 10.98299429 -280.296875 8.73828125 C-259.21228946 2.43718102 -239.15416498 -3.26425791 -216.91796875 -0.1484375 C-215.30432832 1.46520293 -215.77632458 3.21877011 -215.75975037 5.45155334 C-215.74996155 6.44579819 -215.74017273 7.44004303 -215.73008728 8.4644165 C-215.72433182 9.56420837 -215.71857635 10.66400024 -215.71264648 11.79711914 C-215.70274689 12.94818649 -215.69284729 14.09925385 -215.68264771 15.28520203 C-215.65092213 19.11068629 -215.62623172 22.936183 -215.6015625 26.76171875 C-215.58100251 29.40588209 -215.56000631 32.05004207 -215.53858948 34.69419861 C-215.48861269 40.95568289 -215.44369244 47.21719295 -215.40056711 53.47872776 C-215.35123725 60.60561094 -215.29630341 67.73244742 -215.24088752 74.85928547 C-215.12699098 89.52333362 -215.02016872 104.18742823 -214.91796875 118.8515625 C-213.63229221 116.93098586 -212.34766253 115.00970839 -211.06347656 113.08813477 C-210.34798645 112.01829849 -209.63249634 110.94846222 -208.89532471 109.84620667 C-206.71410403 106.54281571 -204.67016923 103.20338404 -202.66796875 99.7890625 C-199.09145212 93.75228735 -195.40927751 87.78758054 -191.66796875 81.8515625 C-191.17264648 81.06257568 -190.67732422 80.27358887 -190.16699219 79.46069336 C-187.9353269 75.93122541 -185.66916968 72.46336393 -183.20703125 69.08984375 C-181.3195319 66.41964416 -179.88379033 63.99794322 -178.54296875 61.0390625 C-176.37808393 56.56138147 -173.77438222 52.69528114 -170.8671875 48.671875 C-168.5885556 45.37493665 -166.52571146 41.98391172 -164.48046875 38.5390625 C-164.10067871 37.89984863 -163.72088867 37.26063477 -163.32958984 36.60205078 C-162.56479582 35.31310493 -161.80047057 34.02388082 -161.03662109 32.734375 C-156.48722451 25.07725007 -151.85918498 17.52937182 -146.55859375 10.36328125 C-144.38399208 7.03406964 -142.69631306 3.40825112 -140.91796875 -0.1484375 C-125.40796875 -0.1484375 -109.89796875 -0.1484375 -93.91796875 -0.1484375 C-93.58796875 47.0415625 -93.25796875 94.2315625 -92.91796875 142.8515625 C-87.98269418 135.80911471 -87.98269418 135.80911471 -83.10546875 128.7265625 C-82.38359375 127.7778125 -81.66171875 126.8290625 -80.91796875 125.8515625 C-80.25796875 125.8515625 -79.59796875 125.8515625 -78.91796875 125.8515625 C-78.55445313 124.78808594 -78.55445313 124.78808594 -78.18359375 123.703125 C-76.72866554 120.425046 -74.90383632 118.03250227 -72.66796875 115.2265625 C-68.18781937 109.5313858 -63.83953497 103.74897499 -59.54296875 97.9140625 C-58.65109863 96.7072583 -58.65109863 96.7072583 -57.74121094 95.47607422 C-57.17305664 94.70408691 -56.60490234 93.93209961 -56.01953125 93.13671875 C-55.51760254 92.45488525 -55.01567383 91.77305176 -54.49853516 91.07055664 C-53.97694824 90.33828857 -53.45536133 89.60602051 -52.91796875 88.8515625 C-52.23401031 87.97144501 -51.55005188 87.09132751 -50.84536743 86.18453979 C-48.54461019 82.20592774 -48.44607227 79.87413794 -48.49902344 75.30493164 C-48.5015361 74.57402817 -48.50404877 73.84312469 -48.50663757 73.09007263 C-48.514018 71.5120684 -48.53022065 69.93408548 -48.55437469 68.35624886 C-48.59031221 65.85410209 -48.59777811 63.35332646 -48.597229 60.85093689 C-48.59984539 53.74045359 -48.64632019 46.63074605 -48.72900391 39.52075195 C-48.77769791 35.16277972 -48.78738243 30.80610431 -48.77341461 26.44790459 C-48.77601708 24.79290012 -48.79359732 23.13784601 -48.82674408 21.48317146 C-49.08154699 8.57172706 -49.08154699 8.57172706 -46.18812561 4.29426575 C-34.56489474 -6.14840073 -13.41661289 -8.03357269 0 0 Z " fill="#FFFFFF" transform="translate(599.91796875,459.1484375)"/>
<path d="M0 0 C0 0.66 0 1.32 0 2 C0.75152344 2.24621094 1.50304687 2.49242187 2.27734375 2.74609375 C8.62770865 5.67072378 12.74243285 13.24168321 15.27734375 19.5625 C18.30436645 29.77256575 17.07927627 39.38655437 12.625 48.953125 C8.33897554 56.49487958 2.25192337 62.13325963 -6.2109375 64.66015625 C-22.92501398 66.6967454 -35.96100961 64.51949519 -51 57 C-51 39.51 -51 22.02 -51 4 C-65.64767185 8.16947405 -65.64767185 8.16947405 -77 16 C-78.28732943 17.1299605 -79.57893317 18.25507207 -80.875 19.375 C-81.42929687 19.87773437 -81.98359375 20.38046875 -82.5546875 20.8984375 C-84 22 -84 22 -86 22 C-86.29261719 22.59167969 -86.58523438 23.18335938 -86.88671875 23.79296875 C-87.82454688 25.65217189 -88.81295095 27.48573795 -89.8125 29.3125 C-102.21921701 54.21886822 -101.56221273 82.34685912 -93.25 108.375 C-89.58441117 119.12815639 -84.67074593 127.25604543 -75.72265625 134.44140625 C-74.86994141 135.21291016 -74.86994141 135.21291016 -74 136 C-74 136.66 -74 137.32 -74 138 C-73.28585937 138.2784375 -72.57171875 138.556875 -71.8359375 138.84375 C-70.00887993 139.58866604 -68.19885184 140.3775804 -66.4140625 141.21875 C-49.09453088 149.17506144 -32.50275316 147.35516633 -15 141 C-6.56003059 137.72095783 1.38322331 133.86583521 9.2578125 129.41796875 C12 128 12 128 16 127 C16 138.55 16 150.1 16 162 C4.17943548 168.44758065 4.17943548 168.44758065 -1 170 C-2.37804265 170.56453282 -3.74989786 171.14427512 -5.1171875 171.734375 C-38.40853211 185.92649955 -78.75340244 191.78617107 -113.3125 178.0625 C-118.73382584 175.6880664 -123.97610498 173.13152921 -129 170 C-129.74636719 169.53851562 -130.49273438 169.07703125 -131.26171875 168.6015625 C-138.84200696 163.7367935 -145.18920739 158.69726817 -150 151 C-150.90770849 150.01252319 -151.82534642 149.03412796 -152.75 148.0625 C-169.18242952 128.9743243 -173.56236115 100.30172644 -172 76 C-171.42584394 70.24207092 -170.31973114 64.62884333 -169 59 C-168.83902832 58.29633301 -168.67805664 57.59266602 -168.51220703 56.86767578 C-164.65757015 40.60118221 -157.04292371 27.50972573 -146 15 C-145.18208984 13.98486328 -145.18208984 13.98486328 -144.34765625 12.94921875 C-130.49870901 -4.20584321 -102.64726535 -13.15433951 -81.44140625 -15.71484375 C-54.38178666 -18.56996017 -21.93809051 -18.74617434 0 0 Z " fill="#FFFFFF" transform="translate(787,472)"/>
<path d="M0 0 C0.80057872 0.01165137 1.60115744 0.02330273 2.42599612 0.03530717 C3.27793829 0.03188947 4.12988046 0.02847177 5.00763905 0.0249505 C7.8731224 0.01834208 10.73767679 0.04039632 13.60307437 0.06222367 C15.65275168 0.06335151 17.7024306 0.06271954 19.75210696 0.06045365 C25.32627241 0.0593031 30.90009555 0.08286777 36.47418123 0.11074948 C42.29579936 0.13570624 48.1174248 0.13810061 53.93908817 0.14285111 C64.9675964 0.15529774 75.99594656 0.18814222 87.02438509 0.22824907 C99.57800249 0.27291429 112.13162731 0.29494061 124.68530434 0.31503081 C150.51320669 0.35687333 176.3409686 0.42725819 202.1687482 0.51632524 C200.30988176 4.24421309 198.41258003 7.95050155 196.4812482 11.64132524 C196.16736148 12.25491899 195.85347476 12.86851274 195.53007632 13.50070024 C193.55295077 17.26149483 191.3628224 20.72043784 188.88359195 24.17257524 C184.61505862 30.16030742 181.03357167 36.49475385 177.4187482 42.89132524 C176.11483458 45.19276144 174.80666309 47.49165268 173.4968732 49.78976274 C172.9287189 50.79442582 172.36056461 51.79908891 171.77519351 52.83419633 C170.98000308 54.16185014 170.98000308 54.16185014 170.1687482 55.51632524 C169.810921 56.22172315 169.45309381 56.92712106 169.08442336 57.65389466 C166.61491791 60.05476228 164.69191173 59.99608031 161.3374964 60.03265047 C160.53691768 60.0209991 159.73633896 60.00934774 158.91150028 59.9973433 C157.63358703 60.00246985 157.63358703 60.00246985 156.32985735 60.00769997 C153.464374 60.01430839 150.59981961 59.99225415 147.73442203 59.9704268 C145.68474472 59.96929896 143.6350658 59.96993093 141.58538944 59.97219682 C136.01122399 59.97334737 130.43740085 59.9497827 124.86331517 59.92190099 C119.04169704 59.89694423 113.2200716 59.89454986 107.39840823 59.88979936 C96.3699 59.87735273 85.34154984 59.84450825 74.31311131 59.8044014 C61.75949391 59.75973618 49.20586909 59.73770986 36.65219206 59.71761966 C10.82428971 59.67577714 -15.0034722 59.60539229 -40.8312518 59.51632524 C-41.1612518 58.85632524 -41.4912518 58.19632524 -41.8312518 57.51632524 C-40.57377043 55.09809184 -39.26759139 52.82552386 -37.8312518 50.51632524 C-37.41770444 49.83860063 -37.00415707 49.16087602 -36.57807797 48.4626143 C-33.70565304 43.79983852 -30.62428134 39.32692557 -27.42890805 34.87960649 C-25.80038322 32.4706639 -24.4349738 30.02628272 -23.0812518 27.45382524 C-20.3643731 22.31458044 -17.3056041 17.45136577 -14.1437518 12.57882524 C-13.66776547 11.84462358 -13.19177914 11.11042192 -12.70136899 10.35397172 C-11.42380206 8.39857202 -10.1474502 6.44594736 -8.8312518 4.51632524 C-8.48067055 3.82829442 -8.13008929 3.14026361 -7.76888436 2.43138337 C-5.28638986 -0.02218879 -3.39894353 0.03705561 0 0 Z " fill="#FC5109" transform="translate(534.8312518000603,343.4836747646332)"/>
<path d="M0 0 C68.31 0 136.62 0 207 0 C206.10964989 4.45175054 205.72603574 5.78614163 203.25 9.1875 C201.13191593 12.2347436 199.33184291 15.20673325 197.75 18.5625 C195.1175397 24.03321554 191.91054566 29.09026844 188.65332031 34.20336914 C183.72443792 41.94394615 179.39951317 49.93422585 175 58 C106.03 58 37.06 58 -34 58 C-32.4153512 54.038378 -30.92531981 51.13072757 -28.625 47.625 C-26.32697752 44.11216387 -24.1601687 40.56428661 -22.09375 36.91015625 C-20.02446946 33.29630559 -17.85474355 29.74318105 -15.6875 26.1875 C-15.20474609 25.39432373 -14.72199219 24.60114746 -14.22460938 23.78393555 C-11.1573005 18.782154 -7.97033537 13.92812021 -4.4375 9.23828125 C-2.48873621 6.33950129 -2.48873621 6.33950129 0 0 Z " fill="#FC5109" transform="translate(770,285)"/>
</svg>
