<?xml version="1.0" encoding="UTF-8"?>
<svg version="1.1" xmlns="http://www.w3.org/2000/svg" width="1024" height="1024">
<path d="M0 0 C1.54349043 0.77182716 3.08793913 1.54174073 4.63330078 2.30981445 C7.67653435 3.82400258 10.71582065 5.34564974 13.75195312 6.87402344 C19.04854741 9.53384943 24.39353914 12.08831586 29.75 14.625 C38.30553989 18.70058486 46.8428551 22.81324679 55.375 26.9375 C64.03306036 31.12228083 72.69662437 35.29495444 81.375 39.4375 C90.01121304 43.56019636 98.63347991 47.71133708 107.25 51.875 C120.44740649 58.25199998 133.65828908 64.60060458 146.875 70.9375 C148.90627085 71.91141484 150.9375208 72.88537329 152.96875 73.859375 C153.98259766 74.34543213 154.99644531 74.83148926 156.04101562 75.33227539 C158.09251865 76.31693838 160.14330417 77.30309769 162.19335938 78.29077148 C167.28553207 80.7431931 172.38332329 83.18149988 177.50128174 85.57958984 C180.08382115 86.79160784 182.66193303 88.01287883 185.23962402 89.23516846 C187.05338525 90.09120034 188.87278336 90.93525763 190.69238281 91.77880859 C210.91568961 101.3921817 223.92887928 113.79262909 231.89453125 134.95703125 C233.35377505 139.39289985 233.9998921 143.42899401 234.00380117 148.09492391 C234.00707336 149.12029944 234.01034555 150.14567497 234.01371691 151.20212248 C234.01149147 152.88504497 234.01149147 152.88504497 234.00922108 154.6019659 C234.01157331 155.80228609 234.01392554 157.00260628 234.01634905 158.2392998 C234.02187363 161.58250004 234.02291069 164.92564782 234.02207164 168.26884897 C234.02224114 171.90181963 234.02814733 175.53478167 234.0333125 179.16774803 C234.04264158 186.37855807 234.04656107 193.58936196 234.04883147 200.80017727 C234.05179275 209.43535866 234.06048975 218.0705319 234.06924575 226.70570902 C234.09009453 247.57890629 234.10056075 268.45210497 234.10937535 289.32531023 C234.11358137 299.19932028 234.11880343 309.07332973 234.12405988 318.94733927 C234.14195072 352.74499163 234.15694676 386.54264417 234.16438007 420.34030056 C234.16485483 422.46232734 234.16533072 424.58435413 234.16580774 426.70638091 C234.1661623 428.28488842 234.1661623 428.28488842 234.16652403 429.89528498 C234.16772523 435.22698361 234.16894068 440.55868224 234.17016602 445.89038086 C234.17040617 446.94847411 234.17064632 448.00656737 234.17089374 449.09672405 C234.17878647 483.40175315 234.20221743 517.70674766 234.23472196 552.01176166 C234.26902198 588.27791388 234.28873139 624.54404587 234.29202431 660.81021458 C234.29244186 664.79170518 234.29292142 668.77319577 234.29344749 672.75468636 C234.29357069 673.73504677 234.29369388 674.71540719 234.2938208 675.7254755 C234.29615264 691.50079235 234.31181176 707.27606904 234.33228934 723.05137158 C234.35254814 738.9097931 234.35802438 754.7681664 234.34851871 770.62659847 C234.34330393 780.04633158 234.34918016 789.4659041 234.37105338 798.88561409 C234.3845687 805.18223125 234.383478 811.47873796 234.37065142 817.77535623 C234.36375965 821.36021682 234.36306808 824.94477056 234.38021151 828.52960365 C234.48247782 851.33787268 232.6267214 870.74357478 215.875 887.9375 C209.60462895 893.47110783 203.14976316 897.76415739 195.6875 901.5 C194.71554687 901.99685303 193.74359375 902.49370605 192.7421875 903.00561523 C179.22731316 909.86534195 165.54671814 916.39782853 151.875 922.9375 C150.83311523 923.43636719 149.79123047 923.93523438 148.71777344 924.44921875 C144.98313929 926.23703557 141.24796372 928.02370318 137.51123047 929.80712891 C129.83005276 933.47415853 122.16366717 937.17155873 114.5 940.875 C105.4642131 945.24147385 96.42417157 949.59880636 87.375 953.9375 C78.36792828 958.2562458 69.36923791 962.5921125 60.375 966.9375 C50.27889489 971.81496296 40.17815541 976.68259325 30.06665039 981.52807617 C24.81475147 984.04483023 19.56642056 986.56856902 14.32421875 989.10546875 C8.18590425 992.0737316 2.03567248 995.01594398 -4.125 997.9375 C-4.92325195 998.31841797 -5.72150391 998.69933594 -6.54394531 999.09179688 C-26.39942293 1008.49840604 -45.14886369 1010.73389598 -66.1875 1003.3125 C-75.76948626 999.16766055 -83.95268266 992.54971315 -91.09765625 985.04296875 C-92.95065051 983.11856816 -94.84949505 981.36415498 -96.875 979.625 C-100.44836921 976.55502209 -103.91940366 973.38842016 -107.375 970.1875 C-107.9306665 969.67300293 -108.48633301 969.15850586 -109.05883789 968.62841797 C-110.19052722 967.58034619 -111.32211874 966.53216879 -112.45361328 965.48388672 C-119.44406915 959.01623444 -126.4836692 952.60431775 -133.5703125 946.2421875 C-138.96887407 941.37192553 -144.31230431 936.4409276 -149.66601562 931.52148438 C-154.77810374 926.8251188 -159.89385156 922.1342486 -165.0625 917.5 C-169.5170991 913.50301622 -173.91418479 909.44675591 -178.30615234 905.38134766 C-182.37381588 901.62022573 -186.4806163 897.90540461 -190.60546875 894.20703125 C-195.99537666 889.35193591 -201.32451805 884.42970458 -206.66601562 879.52148438 C-211.77810374 874.8251188 -216.89385156 870.1342486 -222.0625 865.5 C-226.51786804 861.50232627 -230.91583519 857.44549115 -235.30834961 853.37915039 C-238.55865351 850.37353927 -241.82797075 847.39198076 -245.125 844.4375 C-248.99162567 840.97260167 -252.81513786 837.46445432 -256.625 833.9375 C-261.25119807 829.65522721 -265.91178675 825.41542141 -270.60546875 821.20703125 C-275.99537666 816.35193591 -281.32451805 811.42970458 -286.66601562 806.52148438 C-291.77810374 801.8251188 -296.89385156 797.1342486 -302.0625 792.5 C-306.5170991 788.50301622 -310.91418479 784.44675591 -315.30615234 780.38134766 C-319.37381588 776.62022573 -323.4806163 772.90540461 -327.60546875 769.20703125 C-332.99537666 764.35193591 -338.32451805 759.42970458 -343.66601562 754.52148438 C-348.77810374 749.8251188 -353.89385156 745.1342486 -359.0625 740.5 C-363.5170991 736.50301622 -367.91418479 732.44675591 -372.30615234 728.38134766 C-376.37381588 724.62022573 -380.4806163 720.90540461 -384.60546875 717.20703125 C-389.99537666 712.35193591 -395.32451805 707.42970458 -400.66601562 702.52148438 C-405.77810374 697.8251188 -410.89385156 693.1342486 -416.0625 688.5 C-420.5170991 684.50301622 -424.91418479 680.44675591 -429.30615234 676.38134766 C-433.37381588 672.62022573 -437.4806163 668.90540461 -441.60546875 665.20703125 C-446.99537666 660.35193591 -452.32451805 655.42970458 -457.66601562 650.52148438 C-463.61395444 645.05724071 -469.57897145 639.61387441 -475.58984375 634.21875 C-480.11849429 630.1436623 -484.6206287 626.03938945 -489.125 621.9375 C-495.15066476 625.83863029 -500.87960476 629.97589651 -506.5 634.4375 C-512.79440308 639.38649421 -519.15850055 644.21571773 -525.625 648.9375 C-531.87400775 653.50403352 -538.0357819 658.15996986 -544.125 662.9375 C-550.99285285 668.32593796 -557.97201976 673.53695326 -565.01953125 678.6875 C-570.46297943 682.67876806 -575.81467632 686.77108142 -581.125 690.9375 C-587.21423002 695.71503949 -593.37623202 700.37062672 -599.625 704.9375 C-606.80143989 710.18303939 -613.85408042 715.56532436 -620.85424805 721.04345703 C-625.7682121 724.88822653 -630.72456328 728.66595128 -635.73046875 732.390625 C-638.56179032 734.50501011 -641.36966163 736.64917164 -644.17578125 738.796875 C-645.09190186 739.4976416 -646.00802246 740.1984082 -646.9519043 740.92041016 C-648.76582783 742.3090643 -650.57856586 743.69926892 -652.38989258 745.09130859 C-667.22552955 756.44172608 -678.84932785 764.15348866 -698.125 762.9375 C-710.42115692 760.85280673 -719.32328634 753.25603353 -728.125 744.9375 C-730.1190304 743.09763333 -732.12257703 741.26822301 -734.125 739.4375 C-735.1458778 738.50004842 -736.16671156 737.56254888 -737.1875 736.625 C-739.82132689 734.21532859 -742.46821505 731.82179419 -745.125 729.4375 C-748.81330548 726.12748226 -752.47561053 722.79030417 -756.125 719.4375 C-759.86175269 716.00598302 -763.60743313 712.58524436 -767.375 709.1875 C-768.18066406 708.45789063 -768.98632812 707.72828125 -769.81640625 706.9765625 C-771.27489208 705.68835674 -772.75943933 704.42856682 -774.27734375 703.2109375 C-782.79087462 696.3151409 -788.92941604 686.62004711 -790.44067383 675.64501953 C-791.22802219 663.88879094 -790.37402375 652.92289283 -783.0703125 643.203125 C-780.8482354 640.66580513 -778.53755853 638.29338769 -776.125 635.9375 C-775.43921875 635.22851562 -774.7534375 634.51953125 -774.046875 633.7890625 C-770.38807218 630.02942653 -766.56633434 626.53460714 -762.58984375 623.1171875 C-759.20515128 620.12406801 -755.91947018 617.02926455 -752.625 613.9375 C-748.21159132 609.79861985 -743.77990634 605.70731109 -739.1953125 601.7578125 C-734.64689588 597.75863865 -730.23905609 593.59983292 -725.79638672 589.48388672 C-719.63188635 583.78041822 -713.43992125 578.10701003 -707.1875 572.5 C-703.30129402 569.01301903 -699.45657193 565.48418015 -695.625 561.9375 C-690.99877683 557.65525392 -686.33821377 553.41542188 -681.64453125 549.20703125 C-676.77289755 544.81878446 -671.95287676 540.37376191 -667.125 535.9375 C-660.70240557 530.03587647 -654.26384673 524.15488277 -647.76953125 518.33203125 C-644.07096785 514.98311048 -640.41358506 511.58999381 -636.76586914 508.18579102 C-633.31268988 504.97861234 -629.76882754 501.92674774 -626.125 498.9375 C-627.61092699 495.36648191 -629.59242847 493.39207244 -632.5 490.875 C-633.3971875 490.08738281 -634.294375 489.29976563 -635.21875 488.48828125 C-636.1778125 487.64652344 -637.136875 486.80476563 -638.125 485.9375 C-640.08838078 484.15092904 -642.04716382 482.36047589 -644 480.5625 C-645.01556778 479.630146 -646.03119329 478.69785488 -647.046875 477.765625 C-648.58669408 476.35102628 -650.12635468 474.93625521 -651.66601562 473.52148438 C-656.79973745 468.80524437 -661.93747157 464.09467409 -667.125 459.4375 C-673.35069011 453.84830217 -679.50553078 448.18225942 -685.66601562 442.52148438 C-690.77810374 437.8251188 -695.89385156 433.1342486 -701.0625 428.5 C-705.51786804 424.50232627 -709.91583519 420.44549115 -714.30834961 416.37915039 C-717.55865351 413.37353927 -720.82797075 410.39198076 -724.125 407.4375 C-727.99162567 403.97260167 -731.81513786 400.46445432 -735.625 396.9375 C-740.25119807 392.65522721 -744.91178675 388.41542141 -749.60546875 384.20703125 C-753.43848703 380.75434347 -757.23683534 377.26416507 -761.03515625 373.7734375 C-763.12130668 371.8564344 -765.21278979 369.94550592 -767.30859375 368.0390625 C-769.35858538 366.17419248 -771.39998005 364.30068183 -773.43359375 362.41796875 C-775.01195815 360.9633078 -776.60299375 359.52181456 -778.22265625 358.11328125 C-784.59213535 352.33175407 -789.54275289 343.59439146 -790.30200195 334.91381836 C-790.7551429 319.11526689 -788.83478122 308.25200414 -778.125 295.9375 C-774.26410231 292.09787447 -770.23171997 288.51087971 -766.125 284.9375 C-764.45556075 283.44058639 -762.78873745 281.94074831 -761.125 280.4375 C-760.320625 279.715625 -759.51625 278.99375 -758.6875 278.25 C-755.81899591 275.66134997 -752.9702335 273.05164854 -750.125 270.4375 C-745.67498208 266.34890485 -741.19719243 262.29314499 -736.6953125 258.26171875 C-734.82269385 256.56839337 -732.96471178 254.86478164 -731.1171875 253.14453125 C-717.82061263 240.77280843 -706.50598639 232.54593802 -687.6953125 232.72265625 C-674.24093008 233.53227445 -664.39864492 241.28641499 -654.18017578 249.33154297 C-650.08698129 252.53005014 -645.94634204 255.66683033 -641.8125 258.8125 C-640.90628906 259.5029541 -640.00007812 260.1934082 -639.06640625 260.90478516 C-633.6860077 265.00078699 -628.29037115 269.0753743 -622.875 273.125 C-615.36045129 278.744395 -607.90831415 284.44321201 -600.45996094 290.14990234 C-590.04727287 298.12164032 -579.6274332 306.08422014 -569.125 313.9375 C-558.51304425 321.87277337 -547.99295938 329.92905651 -537.46191406 337.97119141 C-526.99610603 345.96273539 -516.51257774 353.92785576 -505.95874023 361.80297852 C-500.63043871 365.78447396 -495.36142944 369.83594141 -490.125 373.9375 C-487.78817865 371.9414651 -485.45553011 369.94085954 -483.125 367.9375 C-482.5578125 367.45410156 -481.990625 366.97070312 -481.40625 366.47265625 C-476.00254297 361.815514 -470.81764332 356.9315727 -465.61523438 352.05273438 C-461.91957461 348.59288939 -458.18287641 345.20655165 -454.34375 341.90625 C-451.04543437 338.97957557 -447.84122658 335.95383486 -444.625 332.9375 C-440.21143683 328.79877803 -435.77991416 324.70731783 -431.1953125 320.7578125 C-426.64689588 316.75863865 -422.23905609 312.59983292 -417.79638672 308.48388672 C-410.80593085 302.01623444 -403.7663308 295.60431775 -396.6796875 289.2421875 C-391.79905968 284.83917464 -386.96507959 280.38497491 -382.125 275.9375 C-370.84839154 265.57559743 -370.84839154 265.57559743 -365.1875 260.5 C-361.30129402 257.01301903 -357.45657193 253.48418015 -353.625 249.9375 C-348.99877683 245.65525392 -344.33821377 241.41542188 -339.64453125 237.20703125 C-334.77289755 232.81878446 -329.95287676 228.37376191 -325.125 223.9375 C-318.67132094 218.00731329 -312.20167264 212.09738822 -305.6796875 206.2421875 C-300.79905968 201.83917464 -295.96507959 197.38497491 -291.125 192.9375 C-284.67132094 187.00731329 -278.20167264 181.09738822 -271.6796875 175.2421875 C-267.31391306 171.30364481 -262.98705811 167.32267339 -258.65722656 163.34472656 C-255.65035941 160.58316151 -252.63978411 157.82563985 -249.62988281 155.06738281 C-247.10356886 152.75200701 -244.578201 150.43561546 -242.0546875 148.1171875 C-236.62565558 143.13134186 -231.17344178 138.17328108 -225.6875 133.25 C-222.30101679 130.19390539 -218.94255186 127.10764388 -215.58374023 124.02124023 C-212.46866875 121.16147796 -209.33648325 118.32234641 -206.1875 115.5 C-201.73213196 111.50232627 -197.33416481 107.44549115 -192.94165039 103.37915039 C-188.90050116 99.64223118 -184.81789404 95.95450894 -180.71875 92.28125 C-177.66608319 89.52281613 -174.64417344 86.73247956 -171.625 83.9375 C-166.99880193 79.65522721 -162.33821325 75.41542141 -157.64453125 71.20703125 C-152.77289755 66.81878446 -147.95287676 62.37376191 -143.125 57.9375 C-131.84839154 47.57559743 -131.84839154 47.57559743 -126.1875 42.5 C-121.73213196 38.50232627 -117.33416481 34.44549115 -112.94165039 30.37915039 C-108.90039847 26.64213623 -104.82039141 22.95153674 -100.71484375 19.28515625 C-98.79022622 17.54051804 -96.89069034 15.78076547 -95.00390625 13.99609375 C-65.70621046 -13.64955806 -35.84529149 -18.32219676 0 0 Z M-26.921875 269.6484375 C-28.10209229 270.51831299 -28.10209229 270.51831299 -29.30615234 271.40576172 C-30.57773193 272.34959717 -30.57773193 272.34959717 -31.875 273.3125 C-33.17945068 274.27760498 -33.17945068 274.27760498 -34.51025391 275.26220703 C-40.24185349 279.5129047 -45.9248579 283.81799504 -51.56640625 288.1875 C-62.96731248 297.01659723 -74.46792053 305.71929085 -86.01782227 314.35229492 C-92.58660129 319.26872812 -99.10635067 324.24906619 -105.62890625 329.2265625 C-111.01933952 333.33844498 -116.4281932 337.42260006 -121.859375 341.48046875 C-126.38596425 344.87541069 -130.87693217 348.31743192 -135.375 351.75 C-141.60618121 356.50468129 -147.84691247 361.24491068 -154.125 365.9375 C-163.84266774 373.20373005 -173.48007104 380.57516969 -183.125 387.9375 C-193.40357243 395.78351376 -203.68367028 403.62534016 -214.03955078 411.36914062 C-224.00876099 418.83293419 -233.89053138 426.41282787 -243.78808594 433.97119141 C-253.26646989 441.20875224 -262.75868774 448.42470077 -272.3125 455.5625 C-279.37790759 460.84244045 -286.3658515 466.2108916 -293.31030273 471.64868164 C-299.93485576 476.82262403 -306.654283 481.86544897 -313.40234375 486.87695312 C-317.75233505 490.11638384 -321.99874651 493.41687404 -326.125 496.9375 C-324.71119191 500.31543915 -323.13388327 501.97466603 -320.1875 504.1171875 C-319.3843335 504.70894775 -318.58116699 505.30070801 -317.75366211 505.91040039 C-316.45247437 506.8519397 -316.45247437 506.8519397 -315.125 507.8125 C-313.29189172 509.16129788 -311.45988198 510.51158987 -309.62890625 511.86328125 C-308.24082764 512.88542725 -308.24082764 512.88542725 -306.82470703 513.92822266 C-302.8511837 516.8855474 -298.95583067 519.93834733 -295.0625 523 C-288.22014239 528.36256201 -281.26354483 533.54687889 -274.24560547 538.67675781 C-267.87079972 543.35135319 -261.62079295 548.17191648 -255.39575195 553.04345703 C-250.46866888 556.89849108 -245.49786235 560.68478183 -240.48046875 564.421875 C-236.00207344 567.76701357 -231.56763927 571.17012911 -227.125 574.5625 C-219.98370795 580.01349611 -212.81866525 585.43081689 -205.625 590.8125 C-199.26434712 595.57215146 -192.93540894 600.36601121 -186.6484375 605.22265625 C-175.78721004 613.60546119 -164.86252941 621.90850287 -153.875 630.125 C-146.35458944 635.74877851 -138.89659822 641.45201013 -131.44238281 647.16308594 C-119.36739311 656.40887452 -107.25695984 665.60470353 -95.08056641 674.71655273 C-89.5752112 678.83983098 -84.10706797 683.00561803 -78.6640625 687.2109375 C-66.56170961 696.55196923 -54.39679067 705.82002517 -42.125 714.9375 C-41.35784668 715.50839355 -40.59069336 716.07928711 -39.80029297 716.66748047 C-37.18153925 718.6146067 -34.55989928 720.55778705 -31.9375 722.5 C-31.08591309 723.13309082 -30.23432617 723.76618164 -29.35693359 724.41845703 C-28.56496582 725.00353027 -27.77299805 725.58860352 -26.95703125 726.19140625 C-26.24264893 726.72064697 -25.5282666 727.2498877 -24.79223633 727.79516602 C-23.3243501 729.03170346 -23.3243501 729.03170346 -22.125 728.9375 C-22.125 576.4775 -22.125 424.0175 -22.125 266.9375 C-23.99964552 266.9375 -25.47271051 268.5782193 -26.921875 269.6484375 Z " fill="#0085CF" transform="translate(790.125,14.0625)"/>
<path d="M0 0 C1.54349043 0.77182716 3.08793913 1.54174073 4.63330078 2.30981445 C7.67653435 3.82400258 10.71582065 5.34564974 13.75195312 6.87402344 C19.04854741 9.53384943 24.39353914 12.08831586 29.75 14.625 C38.30553989 18.70058486 46.8428551 22.81324679 55.375 26.9375 C64.03306036 31.12228083 72.69662437 35.29495444 81.375 39.4375 C90.01121304 43.56019636 98.63347991 47.71133708 107.25 51.875 C120.44740649 58.25199998 133.65828908 64.60060458 146.875 70.9375 C148.90627085 71.91141484 150.9375208 72.88537329 152.96875 73.859375 C154.48952148 74.58846069 154.48952148 74.58846069 156.04101562 75.33227539 C158.09251865 76.31693838 160.14330417 77.30309769 162.19335938 78.29077148 C167.28553207 80.7431931 172.38332329 83.18149988 177.50128174 85.57958984 C180.08382115 86.79160784 182.66193303 88.01287883 185.23962402 89.23516846 C187.05338525 90.09120034 188.87278336 90.93525763 190.69238281 91.77880859 C210.91568961 101.3921817 223.92887928 113.79262909 231.89453125 134.95703125 C233.35377505 139.39289985 233.9998921 143.42899401 234.00380117 148.09492391 C234.00707336 149.12029944 234.01034555 150.14567497 234.01371691 151.20212248 C234.01223328 152.32407081 234.01074966 153.44601914 234.00922108 154.6019659 C234.01157331 155.80228609 234.01392554 157.00260628 234.01634905 158.2392998 C234.02187363 161.58250004 234.02291069 164.92564782 234.02207164 168.26884897 C234.02224114 171.90181963 234.02814733 175.53478167 234.0333125 179.16774803 C234.04264158 186.37855807 234.04656107 193.58936196 234.04883147 200.80017727 C234.05179275 209.43535866 234.06048975 218.0705319 234.06924575 226.70570902 C234.09009453 247.57890629 234.10056075 268.45210497 234.10937535 289.32531023 C234.11358137 299.19932028 234.11880343 309.07332973 234.12405988 318.94733927 C234.14195072 352.74499163 234.15694676 386.54264417 234.16438007 420.34030056 C234.16485483 422.46232734 234.16533072 424.58435413 234.16580774 426.70638091 C234.16604411 427.75871925 234.16628049 428.8110576 234.16652403 429.89528498 C234.16772523 435.22698361 234.16894068 440.55868224 234.17016602 445.89038086 C234.17040617 446.94847411 234.17064632 448.00656737 234.17089374 449.09672405 C234.17878647 483.40175315 234.20221743 517.70674766 234.23472196 552.01176166 C234.26902198 588.27791388 234.28873139 624.54404587 234.29202431 660.81021458 C234.29244186 664.79170518 234.29292142 668.77319577 234.29344749 672.75468636 C234.29357069 673.73504677 234.29369388 674.71540719 234.2938208 675.7254755 C234.29615264 691.50079235 234.31181176 707.27606904 234.33228934 723.05137158 C234.35254814 738.9097931 234.35802438 754.7681664 234.34851871 770.62659847 C234.34330393 780.04633158 234.34918016 789.4659041 234.37105338 798.88561409 C234.3845687 805.18223125 234.383478 811.47873796 234.37065142 817.77535623 C234.36375965 821.36021682 234.36306808 824.94477056 234.38021151 828.52960365 C234.48247782 851.33787268 232.6267214 870.74357478 215.875 887.9375 C209.60462895 893.47110783 203.14976316 897.76415739 195.6875 901.5 C194.71554687 901.99685303 193.74359375 902.49370605 192.7421875 903.00561523 C179.22731316 909.86534195 165.54671814 916.39782853 151.875 922.9375 C150.83311523 923.43636719 149.79123047 923.93523438 148.71777344 924.44921875 C144.98313929 926.23703557 141.24796372 928.02370318 137.51123047 929.80712891 C129.83005276 933.47415853 122.16366717 937.17155873 114.5 940.875 C105.4642131 945.24147385 96.42417157 949.59880636 87.375 953.9375 C78.36792828 958.2562458 69.36923791 962.5921125 60.375 966.9375 C50.27889489 971.81496296 40.17815541 976.68259325 30.06665039 981.52807617 C24.81475147 984.04483023 19.56642056 986.56856902 14.32421875 989.10546875 C8.18590425 992.0737316 2.03567248 995.01594398 -4.125 997.9375 C-4.92325195 998.31841797 -5.72150391 998.69933594 -6.54394531 999.09179688 C-25.54588389 1008.09403862 -43.46258586 1010.6952914 -63.78515625 1004.0703125 C-65.58251675 1003.40462343 -67.35785907 1002.67969919 -69.125 1001.9375 C-69.125 1000.9475 -69.125 999.9575 -69.125 998.9375 C-67.61873047 999.02451172 -67.61873047 999.02451172 -66.08203125 999.11328125 C-53.93930901 999.60442406 -44.2220556 997.76997603 -34.625 989.6875 C-27.79188109 983.00967925 -23.59881722 975.24719234 -22.873767 965.59189989 C-22.873184 964.4199829 -22.872601 963.24806592 -22.87200034 962.0406363 C-22.86742069 961.0480404 -22.86742069 961.0480404 -22.86274853 960.03539205 C-22.85496588 957.82194645 -22.86137346 955.6087753 -22.86773109 953.39532852 C-22.86503723 951.78398409 -22.86146913 950.17264093 -22.85710663 948.56130016 C-22.84763785 944.11988033 -22.85065277 939.67854239 -22.85566217 935.2371185 C-22.85892456 930.41023283 -22.85064979 925.58336482 -22.84384382 920.75648475 C-22.83352696 912.29213888 -22.83070295 903.82781589 -22.83275604 895.36346436 C-22.83580164 882.77665056 -22.82749185 870.18986214 -22.81700679 857.60305328 C-22.79764643 833.81674828 -22.79203782 810.03045189 -22.79089268 786.24413994 C-22.78997426 767.87816933 -22.78586106 749.51220211 -22.77949142 731.1462326 C-22.77769639 725.86322523 -22.77591676 720.58021784 -22.77414167 715.29721045 C-22.77369957 713.98391054 -22.77325748 712.67061062 -22.77280198 711.31751374 C-22.76049044 674.36763241 -22.7525894 637.41775227 -22.75348854 600.4678688 C-22.7535201 599.06017704 -22.75355157 597.65248527 -22.75358296 596.2447935 C-22.75372973 589.88915485 -22.75390606 583.53351621 -22.75409073 577.17787756 C-22.75417297 574.34372578 -22.75425327 571.50957401 -22.75433335 568.67542223 C-22.75437414 567.25687806 -22.75441618 565.83833388 -22.75445947 564.4197897 C-22.75582 519.56272393 -22.74118491 474.70568973 -22.71337891 429.84863281 C-22.70637689 418.54672378 -22.69943799 407.24481471 -22.69285011 395.94290543 C-22.69244436 395.24700642 -22.69203862 394.55110741 -22.69162057 393.83412056 C-22.679191 372.38654407 -22.67165953 350.93897017 -22.66913414 329.49139023 C-22.66905424 328.81803945 -22.66897434 328.14468867 -22.66889201 327.45093332 C-22.66710892 312.00623044 -22.66672597 296.56152783 -22.66730535 281.11682487 C-22.66745462 275.83256006 -22.66755203 270.54829526 -22.66761398 265.26403046 C-22.66764895 263.31228956 -22.66764895 263.31228956 -22.66768462 261.32111956 C-22.66774622 240.36243692 -22.65496275 219.40378089 -22.63774945 198.44510617 C-22.62081372 177.3892186 -22.61880298 156.33337005 -22.6319681 135.27747944 C-22.63937093 122.76217642 -22.63565951 110.24699181 -22.61608342 97.73170128 C-22.60411525 89.37555892 -22.60663918 81.01950265 -22.62102441 72.6633643 C-22.62881415 67.89979721 -22.63026246 63.13645983 -22.61410971 58.37290862 C-22.59953786 54.03768091 -22.60344092 49.70287393 -22.62195744 45.36766486 C-22.62539474 43.81073029 -22.62216059 42.25376266 -22.61135503 40.69686179 C-22.53048162 28.20586138 -24.2199758 17.29497346 -33.125 7.9375 C-35.64007166 5.64575394 -38.24738228 3.74873797 -41.125 1.9375 C-41.74503906 1.52242187 -42.36507812 1.10734375 -43.00390625 0.6796875 C-51.07866589 -3.8396496 -62.65864595 -3.57225493 -71.40625 -1.15625 C-74.0184833 -0.12167655 -74.0184833 -0.12167655 -76.27734375 1.0625 C-78.125 1.9375 -78.125 1.9375 -81.125 1.9375 C-55.55325159 -18.09274085 -27.0261977 -13.81434747 0 0 Z " fill="#22A8F1" transform="translate(790.125,14.0625)"/>
<path d="M0 0 C10.16621304 5.88631943 16.49500728 13.34740498 19.87389719 24.8483665 C20.32462192 26.99523858 20.46065516 28.94122355 20.49420738 31.13316727 C20.51661997 32.38433519 20.51661997 32.38433519 20.53948534 33.66077924 C20.55089701 34.57204155 20.56230868 35.48330386 20.57406616 36.42218018 C20.58973747 37.39436139 20.60540878 38.3665426 20.62155497 39.36818385 C20.67248662 42.63505014 20.71608553 45.9019681 20.75927734 49.16894531 C20.79336633 51.5080789 20.82758996 53.84721054 20.86193848 56.18634033 C21.16487518 77.56101894 21.34149074 98.93708844 21.482687 120.31337357 C21.50193172 123.17538963 21.52155486 126.03740282 21.54150391 128.89941406 C21.54644692 129.61070263 21.55138994 130.32199121 21.55648275 131.05483398 C21.63863937 142.55540424 21.79793874 154.05363811 21.98684423 165.55289522 C22.17946481 177.37744664 22.29143027 189.20078527 22.32902873 201.02685618 C22.35233607 207.66009042 22.41400125 214.28928536 22.56339645 220.92105865 C22.70285621 227.17082854 22.7417404 233.41345758 22.70605469 239.66460419 C22.71020944 241.94808394 22.74990959 244.23184258 22.82927322 246.51394653 C23.38198168 263.25917695 23.38198168 263.25917695 18.23309755 269.42935848 C13.18683941 274.13489987 7.61639578 277.89147458 1.72701573 281.45738363 C-1.2424672 283.27769908 -3.94424983 285.29495903 -6.6875 287.4375 C-8.04101562 288.44876953 -8.04101562 288.44876953 -9.421875 289.48046875 C-13.94846425 292.87541069 -18.43943217 296.31743192 -22.9375 299.75 C-29.79495867 304.98256014 -36.67091973 310.18800747 -43.58007812 315.35205078 C-50.14884869 320.26868606 -56.6687593 325.24899646 -63.19140625 330.2265625 C-68.58183952 334.33844498 -73.9906932 338.42260006 -79.421875 342.48046875 C-83.94846425 345.87541069 -88.43943217 349.31743192 -92.9375 352.75 C-99.16868121 357.50468129 -105.40941247 362.24491068 -111.6875 366.9375 C-121.40516774 374.20373005 -131.04257104 381.57516969 -140.6875 388.9375 C-150.96607243 396.78351376 -161.24617028 404.62534016 -171.60205078 412.36914062 C-181.57126099 419.83293419 -191.45303138 427.41282787 -201.35058594 434.97119141 C-210.82896989 442.20875224 -220.32118774 449.42470077 -229.875 456.5625 C-236.93959169 461.84183073 -243.92622884 467.21026917 -250.87060547 472.64648438 C-257.52877778 477.84555355 -264.27930907 482.91716491 -271.05273438 487.96484375 C-278.28734978 492.64765769 -278.28734978 492.64765769 -283.6875 498.9375 C-288.32005116 497.44536742 -291.635479 494.75999131 -295.3125 491.6875 C-301.08437121 486.96434015 -306.97237141 482.45419011 -313 478.0625 C-320.14641904 472.84635679 -327.16904965 467.49753977 -334.13476562 462.04296875 C-338.88390411 458.32841949 -343.66783023 454.66832365 -348.5 451.0625 C-354.65156974 446.47193731 -360.77185208 441.84227219 -366.875 437.1875 C-367.75671875 436.51509277 -368.6384375 435.84268555 -369.546875 435.14990234 C-373.17016258 432.38583278 -376.79258072 429.62062492 -380.41503906 426.85546875 C-389.7784117 419.70929431 -399.14766936 412.57318581 -408.58227539 405.52124023 C-415.13492683 400.61688803 -421.63879177 395.64895108 -428.14526367 390.68359375 C-434.6339728 385.73385403 -441.1440256 380.81462378 -447.6875 375.9375 C-443.65657857 370.95188665 -439.33106838 366.69731148 -434.52734375 362.45703125 C-431.37373303 359.65912352 -428.27803325 356.80459941 -425.1875 353.9375 C-420.58758078 349.67811769 -415.95015353 345.46507264 -411.28125 341.28125 C-408.22858319 338.52281613 -405.20667344 335.73247956 -402.1875 332.9375 C-397.56130193 328.65522721 -392.90071325 324.41542141 -388.20703125 320.20703125 C-383.33539755 315.81878446 -378.51537676 311.37376191 -373.6875 306.9375 C-367.23382094 301.00731329 -360.76417264 295.09738822 -354.2421875 289.2421875 C-349.36155968 284.83917464 -344.52757959 280.38497491 -339.6875 275.9375 C-328.41089154 265.57559743 -328.41089154 265.57559743 -322.75 260.5 C-318.86379402 257.01301903 -315.01907193 253.48418015 -311.1875 249.9375 C-306.56127683 245.65525392 -301.90071377 241.41542188 -297.20703125 237.20703125 C-292.33539755 232.81878446 -287.51537676 228.37376191 -282.6875 223.9375 C-276.23382094 218.00731329 -269.76417264 212.09738822 -263.2421875 206.2421875 C-258.36155968 201.83917464 -253.52757959 197.38497491 -248.6875 192.9375 C-242.23382094 187.00731329 -235.76417264 181.09738822 -229.2421875 175.2421875 C-224.87641306 171.30364481 -220.54955811 167.32267339 -216.21972656 163.34472656 C-213.21285941 160.58316151 -210.20228411 157.82563985 -207.19238281 155.06738281 C-204.66606886 152.75200701 -202.140701 150.43561546 -199.6171875 148.1171875 C-194.18815558 143.13134186 -188.73594178 138.17328108 -183.25 133.25 C-179.86351679 130.19390539 -176.50505186 127.10764388 -173.14624023 124.02124023 C-170.03116875 121.16147796 -166.89898325 118.32234641 -163.75 115.5 C-159.29463196 111.50232627 -154.89666481 107.44549115 -150.50415039 103.37915039 C-146.46300116 99.64223118 -142.38039404 95.95450894 -138.28125 92.28125 C-135.22858319 89.52281613 -132.20667344 86.73247956 -129.1875 83.9375 C-124.56130193 79.65522721 -119.90071325 75.41542141 -115.20703125 71.20703125 C-110.33539755 66.81878446 -105.51537676 62.37376191 -100.6875 57.9375 C-89.41089154 47.57559743 -89.41089154 47.57559743 -83.75 42.5 C-79.29463196 38.50232627 -74.89666481 34.44549115 -70.50415039 30.37915039 C-67.25384649 27.37353927 -63.98452925 24.39198076 -60.6875 21.4375 C-56.65679064 17.82444638 -52.66525852 14.17110313 -48.6875 10.5 C-48.12289063 9.97921875 -47.55828125 9.4584375 -46.9765625 8.921875 C-44.84919518 6.95535741 -42.73623646 4.98623646 -40.6875 2.9375 C-38.36517345 1.86922979 -36.05801365 0.88494305 -33.6875 -0.0625 C-33.08518555 -0.32216553 -32.48287109 -0.58183105 -31.86230469 -0.84936523 C-21.73064647 -5.01293409 -9.83096996 -5.00419759 0 0 Z " fill="#0075B6" transform="translate(747.6875,14.0625)"/>
<path d="M0 0 C4.11989139 2.12236829 6.9518078 4.84851617 10.13671875 8.12890625 C11.90561372 9.90521797 13.72589244 11.55226844 15.625 13.1875 C19.23576059 16.30334939 22.75124619 19.50986091 26.25 22.75 C26.80405518 23.26288574 27.35811035 23.77577148 27.92895508 24.30419922 C29.05936645 25.35094286 30.18965568 26.39781841 31.31982422 27.44482422 C39.97327168 35.48210119 39.97327168 35.48210119 48.8125 43.3125 C53.49884247 47.37006696 57.98558374 51.6422185 62.5065918 55.8815918 C66.25405089 59.38936331 70.04046602 62.82923264 73.9296875 66.1796875 C78.47810412 70.17886135 82.88594391 74.33766708 87.32861328 78.45361328 C94.31635836 84.9187575 101.35244599 91.3291182 108.4375 97.6875 C111.81661863 100.73694852 115.17066434 103.8134432 118.51708984 106.89868164 C122.62730316 110.68180991 126.81546124 114.3709899 131.0390625 118.02734375 C132.96428654 119.96407311 133.85796103 121.55735851 135 124 C125.90907476 131.15378429 116.77205365 138.22853133 107.4375 145.0625 C99.30379478 151.01790323 91.27838196 157.10059058 83.28662109 163.24462891 C72.27162034 171.7005178 61.22005292 180.10832693 50.09741211 188.42211914 C44.53973228 192.58181637 39.01819829 196.78811838 33.5 201 C27.35227398 205.69238198 21.1946408 210.36971059 15 215 C8.91302649 219.55144376 2.85667497 224.14187798 -3.1875 228.75 C-4.06510986 229.41894287 -4.94271973 230.08788574 -5.84692383 230.77709961 C-10.45385608 234.29043539 -15.05690239 237.80877239 -19.65625 241.33203125 C-20.58284424 242.04069336 -21.50943848 242.74935547 -22.46411133 243.47949219 C-24.21787034 244.82087022 -25.97040993 246.16384483 -27.72143555 247.50878906 C-42.39430498 258.72465373 -53.95851741 266.20121502 -73 265 C-85.29615692 262.91530673 -94.19828634 255.31853353 -103 247 C-104.9940304 245.16013333 -106.99757703 243.33072301 -109 241.5 C-110.0208778 240.56254842 -111.04171156 239.62504888 -112.0625 238.6875 C-114.69632689 236.27782859 -117.34321505 233.88429419 -120 231.5 C-123.68830548 228.18998226 -127.35061053 224.85280417 -131 221.5 C-134.73675269 218.06848302 -138.48243313 214.64774436 -142.25 211.25 C-143.05566406 210.52039063 -143.86132812 209.79078125 -144.69140625 209.0390625 C-146.14989208 207.75085674 -147.63443933 206.49106682 -149.15234375 205.2734375 C-157.66587462 198.3776409 -163.80441604 188.68254711 -165.31567383 177.70751953 C-166.10302219 165.95129094 -165.24902375 154.98539283 -157.9453125 145.265625 C-155.7232354 142.72830513 -153.41255853 140.35588769 -151 138 C-150.31421875 137.29101562 -149.6284375 136.58203125 -148.921875 135.8515625 C-145.26307218 132.09192653 -141.44133434 128.59710714 -137.46484375 125.1796875 C-134.08015128 122.18656801 -130.79447018 119.09176455 -127.5 116 C-123.08659132 111.86111985 -118.65490634 107.76981109 -114.0703125 103.8203125 C-109.52189588 99.82113865 -105.11405609 95.66233292 -100.67138672 91.54638672 C-94.50688635 85.84291822 -88.31492125 80.16951003 -82.0625 74.5625 C-78.17629402 71.07551903 -74.33157193 67.54668015 -70.5 64 C-65.87377683 59.71775392 -61.21321377 55.47792188 -56.51953125 51.26953125 C-51.64789755 46.88128446 -46.82787676 42.43626191 -42 38 C-30.72339154 27.63809743 -30.72339154 27.63809743 -25.0625 22.5625 C-21.10944095 19.01749866 -17.2059985 15.4225021 -13.3125 11.8125 C-8.95508219 7.7739331 -4.55656741 3.81480062 0 0 Z " fill="#006CAE" transform="translate(165,512)"/>
<path d="M0 0 C0.33 1.32 0.66 2.64 1 4 C-0.60149886 4.67305018 -2.20631029 5.33822227 -3.8125 6 C-4.70582031 6.37125 -5.59914063 6.7425 -6.51953125 7.125 C-9 8 -9 8 -12 8 C-10.37615858 6.85252535 -8.75088944 5.7070709 -7.125 4.5625 C-6.22007812 3.92441406 -5.31515625 3.28632813 -4.3828125 2.62890625 C-2 1 -2 1 0 0 Z " fill="#28A3DF" transform="translate(721,8)"/>
</svg>
